<?xml version="1.0" encoding="UTF-8"?>
<svg id="Layer_1" xmlns="http://www.w3.org/2000/svg" version="1.1" xmlns:xlink="http://www.w3.org/1999/xlink" viewBox="0 0 120.56 76.57">
  <!-- Generator: Adobe Illustrator 29.8.2, SVG Export Plug-In . SVG Version: 2.1.1 Build 3)  -->
  <defs>
    <style>
      .st0 {
        fill: url(#linear-gradient134);
      }

      .st1 {
        fill: url(#linear-gradient139);
      }

      .st2 {
        fill: url(#linear-gradient75);
      }

      .st3 {
        fill: url(#linear-gradient2);
      }

      .st4 {
        fill: url(#linear-gradient81);
      }

      .st5 {
        fill: url(#linear-gradient120);
      }

      .st6 {
        fill: url(#linear-gradient36);
      }

      .st7 {
        fill: url(#linear-gradient39);
      }

      .st8 {
        fill: url(#linear-gradient107);
      }

      .st9 {
        fill: url(#linear-gradient130);
      }

      .st10 {
        fill: url(#linear-gradient34);
      }

      .st11 {
        fill: url(#linear-gradient58);
      }

      .st12 {
        fill: url(#linear-gradient131);
      }

      .st13 {
        fill: url(#linear-gradient73);
      }

      .st14 {
        fill: url(#linear-gradient83);
      }

      .st15 {
        fill: url(#linear-gradient129);
      }

      .st16 {
        fill: url(#linear-gradient33);
      }

      .st17 {
        fill: url(#linear-gradient10);
      }

      .st18 {
        fill: url(#linear-gradient63);
      }

      .st19 {
        fill: url(#linear-gradient147);
      }

      .st20 {
        fill: url(#linear-gradient82);
      }

      .st21 {
        fill: url(#linear-gradient71);
      }

      .st22 {
        fill: url(#linear-gradient32);
      }

      .st23 {
        fill: url(#linear-gradient123);
      }

      .st24 {
        fill: url(#linear-gradient21);
      }

      .st25 {
        fill: url(#linear-gradient85);
      }

      .st26 {
        fill: url(#linear-gradient112);
      }

      .st27 {
        fill: url(#linear-gradient37);
      }

      .st28 {
        fill: url(#linear-gradient56);
      }

      .st29 {
        fill: url(#linear-gradient27);
      }

      .st30 {
        fill: url(#linear-gradient146);
      }

      .st31 {
        fill: url(#linear-gradient148);
      }

      .st32 {
        fill: url(#linear-gradient126);
      }

      .st33 {
        fill: url(#linear-gradient53);
      }

      .st34 {
        fill: url(#linear-gradient57);
      }

      .st35 {
        fill: url(#linear-gradient113);
      }

      .st36 {
        fill: url(#linear-gradient35);
      }

      .st37 {
        fill: url(#linear-gradient116);
      }

      .st38 {
        fill: url(#linear-gradient119);
      }

      .st39 {
        fill: url(#linear-gradient26);
      }

      .st40 {
        fill: url(#linear-gradient1);
      }

      .st41 {
        fill: url(#linear-gradient118);
      }

      .st42 {
        fill: url(#linear-gradient109);
      }

      .st43 {
        fill: url(#linear-gradient9);
      }

      .st44 {
        fill: url(#linear-gradient125);
      }

      .st45 {
        fill: url(#linear-gradient18);
      }

      .st46 {
        fill: url(#linear-gradient61);
      }

      .st47 {
        fill: url(#linear-gradient101);
      }

      .st48 {
        fill: url(#linear-gradient132);
      }

      .st49 {
        fill: url(#linear-gradient138);
      }

      .st50 {
        fill: url(#linear-gradient23);
      }

      .st51 {
        fill: url(#linear-gradient72);
      }

      .st52 {
        fill: url(#linear-gradient43);
      }

      .st53 {
        fill: url(#linear-gradient78);
      }

      .st54 {
        fill: url(#linear-gradient69);
      }

      .st55 {
        fill: url(#linear-gradient8);
      }

      .st56 {
        fill: url(#linear-gradient11);
      }

      .st57 {
        fill: none;
      }

      .st58 {
        fill: #242122;
      }

      .st59 {
        fill: url(#linear-gradient104);
      }

      .st60 {
        fill: url(#linear-gradient105);
      }

      .st61 {
        fill: url(#linear-gradient16);
      }

      .st62 {
        fill: url(#linear-gradient135);
      }

      .st63 {
        fill: url(#linear-gradient24);
      }

      .st64 {
        fill: url(#linear-gradient95);
      }

      .st65 {
        fill: url(#linear-gradient137);
      }

      .st66 {
        fill: url(#linear-gradient140);
      }

      .st67 {
        fill: url(#linear-gradient30);
      }

      .st68 {
        fill: url(#linear-gradient46);
      }

      .st69 {
        fill: url(#linear-gradient114);
      }

      .st70 {
        fill: url(#linear-gradient94);
      }

      .st71 {
        fill: url(#linear-gradient22);
      }

      .st72 {
        fill: url(#linear-gradient108);
      }

      .st73 {
        fill: url(#linear-gradient29);
      }

      .st74 {
        fill: url(#linear-gradient68);
      }

      .st75 {
        fill: url(#linear-gradient49);
      }

      .st76 {
        fill: url(#linear-gradient93);
      }

      .st77 {
        fill: url(#linear-gradient106);
      }

      .st78 {
        fill: url(#linear-gradient19);
      }

      .st79 {
        fill: url(#linear-gradient12);
      }

      .st80 {
        fill: url(#linear-gradient65);
      }

      .st81 {
        fill: url(#linear-gradient128);
      }

      .st82 {
        fill: url(#linear-gradient80);
      }

      .st83 {
        fill: url(#linear-gradient142);
      }

      .st84 {
        fill: url(#linear-gradient42);
      }

      .st85 {
        fill: url(#linear-gradient28);
      }

      .st86 {
        fill: url(#linear-gradient100);
      }

      .st87 {
        fill: url(#linear-gradient67);
      }

      .st88 {
        fill: url(#linear-gradient40);
      }

      .st89 {
        fill: url(#linear-gradient66);
      }

      .st90 {
        fill: url(#linear-gradient84);
      }

      .st91 {
        fill: url(#linear-gradient111);
      }

      .st92 {
        fill: url(#linear-gradient62);
      }

      .st93 {
        fill: url(#linear-gradient7);
      }

      .st94 {
        fill: url(#linear-gradient59);
      }

      .st95 {
        fill: url(#linear-gradient91);
      }

      .st96 {
        fill: url(#linear-gradient20);
      }

      .st97 {
        fill: url(#linear-gradient4);
      }

      .st98 {
        fill: url(#linear-gradient31);
      }

      .st99 {
        fill: url(#linear-gradient96);
      }

      .st100 {
        fill: url(#linear-gradient79);
      }

      .st101 {
        fill: url(#linear-gradient98);
      }

      .st102 {
        fill: url(#linear-gradient14);
      }

      .st103 {
        fill: url(#linear-gradient5);
      }

      .st104 {
        fill: url(#linear-gradient74);
      }

      .st105 {
        fill: url(#linear-gradient145);
      }

      .st106 {
        fill: url(#linear-gradient3);
      }

      .st107 {
        fill: url(#linear-gradient149);
      }

      .st108 {
        fill: #eed894;
      }

      .st109 {
        fill: url(#linear-gradient102);
      }

      .st110 {
        fill: url(#linear-gradient87);
      }

      .st111 {
        fill: url(#linear-gradient55);
      }

      .st112 {
        fill: url(#linear-gradient38);
      }

      .st113 {
        fill: url(#linear-gradient25);
      }

      .st114 {
        fill: url(#linear-gradient99);
      }

      .st115 {
        fill: url(#linear-gradient121);
      }

      .st116 {
        fill: url(#linear-gradient52);
      }

      .st117 {
        fill: url(#linear-gradient15);
      }

      .st118 {
        fill: url(#linear-gradient136);
      }

      .st119 {
        fill: url(#linear-gradient144);
      }

      .st120 {
        fill: url(#linear-gradient88);
      }

      .st121 {
        fill: url(#linear-gradient17);
      }

      .st122 {
        fill: url(#linear-gradient54);
      }

      .st123 {
        fill: url(#linear-gradient141);
      }

      .st124 {
        fill: url(#linear-gradient50);
      }

      .st125 {
        fill: url(#linear-gradient103);
      }

      .st126 {
        fill: url(#linear-gradient124);
      }

      .st127 {
        fill: url(#linear-gradient89);
      }

      .st128 {
        fill: url(#linear-gradient51);
      }

      .st129 {
        fill: url(#linear-gradient6);
      }

      .st130 {
        fill: url(#linear-gradient92);
      }

      .st131 {
        fill: url(#linear-gradient77);
      }

      .st132 {
        fill: url(#linear-gradient117);
      }

      .st133 {
        fill: url(#linear-gradient86);
      }

      .st134 {
        fill: url(#linear-gradient64);
      }

      .st135 {
        fill: url(#linear-gradient90);
      }

      .st136 {
        fill: url(#linear-gradient115);
      }

      .st137 {
        fill: url(#linear-gradient70);
      }

      .st138 {
        fill: url(#linear-gradient76);
      }

      .st139 {
        fill: url(#linear-gradient48);
      }

      .st140 {
        fill: url(#linear-gradient122);
      }

      .st141 {
        fill: url(#linear-gradient13);
      }

      .st142 {
        fill: url(#linear-gradient45);
      }

      .st143 {
        fill: url(#linear-gradient97);
      }

      .st144 {
        fill: url(#linear-gradient47);
      }

      .st145 {
        fill: url(#linear-gradient60);
      }

      .st146 {
        fill: url(#linear-gradient);
      }

      .st147 {
        fill: url(#linear-gradient44);
      }

      .st148 {
        fill: url(#linear-gradient41);
      }

      .st149 {
        fill: url(#linear-gradient133);
      }

      .st150 {
        fill: url(#linear-gradient127);
      }

      .st151 {
        fill: url(#linear-gradient110);
      }

      .st152 {
        fill: url(#linear-gradient143);
      }
    </style>
    <linearGradient id="linear-gradient" x1="74.05" y1="66.87" x2="115.87" y2="67.17" gradientUnits="userSpaceOnUse">
      <stop offset="0" stop-color="#b07d23"/>
      <stop offset=".53" stop-color="#ecd393"/>
      <stop offset="1" stop-color="#fff9ba"/>
    </linearGradient>
    <linearGradient id="linear-gradient1" x1="74.02" y1="70.23" x2="115.84" y2="70.54" xlink:href="#linear-gradient"/>
    <linearGradient id="linear-gradient2" x1="4984.78" y1="66.88" x2="5024.11" y2="67.16" gradientTransform="translate(-4982.14 134.05) scale(1 -1)" xlink:href="#linear-gradient"/>
    <linearGradient id="linear-gradient3" x1="4984.75" y1="70.24" x2="5024.08" y2="70.52" gradientTransform="translate(5028.18) rotate(-180) scale(1 -1)" xlink:href="#linear-gradient"/>
    <linearGradient id="linear-gradient4" x1="36" y1="51.95" x2="3.06" y2="52.07" xlink:href="#linear-gradient"/>
    <linearGradient id="linear-gradient5" x1="6617.82" y1="51.49" x2="6579.58" y2="51.63" gradientTransform="translate(6697.03) rotate(-180) scale(1 -1)" xlink:href="#linear-gradient"/>
    <linearGradient id="linear-gradient6" x1="49.36" y1="51.51" x2="79.58" y2="41.72" gradientUnits="userSpaceOnUse">
      <stop offset="0" stop-color="#b69148"/>
      <stop offset=".02" stop-color="#b9964e"/>
      <stop offset=".13" stop-color="#ceb36e"/>
      <stop offset=".25" stop-color="#dfcc88"/>
      <stop offset=".38" stop-color="#ecde9d"/>
      <stop offset=".53" stop-color="#f5ebab"/>
      <stop offset=".71" stop-color="#fbf3b4"/>
      <stop offset="1" stop-color="#fdf6b7"/>
    </linearGradient>
    <linearGradient id="linear-gradient7" x1="65.31" y1="52.51" x2="79.44" y2="44.23" xlink:href="#linear-gradient6"/>
    <linearGradient id="linear-gradient8" x1="79.97" y1="39.9" x2="66.27" y2="42.27" xlink:href="#linear-gradient6"/>
    <linearGradient id="linear-gradient9" x1="53.08" y1="48.09" x2="53.17" y2="42.44" gradientUnits="userSpaceOnUse">
      <stop offset="0" stop-color="#b5984e"/>
      <stop offset="1" stop-color="#fff9ba"/>
    </linearGradient>
    <linearGradient id="linear-gradient10" x1="51.4" y1="48.06" x2="51.49" y2="42.42" xlink:href="#linear-gradient9"/>
    <linearGradient id="linear-gradient11" x1="51.12" y1="48.06" x2="51.21" y2="42.41" xlink:href="#linear-gradient9"/>
    <linearGradient id="linear-gradient12" x1="51.09" y1="48.06" x2="51.18" y2="42.41" xlink:href="#linear-gradient9"/>
    <linearGradient id="linear-gradient13" x1="51.16" y1="48.06" x2="51.25" y2="42.41" xlink:href="#linear-gradient9"/>
    <linearGradient id="linear-gradient14" x1="51.56" y1="48.07" x2="51.65" y2="42.42" xlink:href="#linear-gradient9"/>
    <linearGradient id="linear-gradient15" x1="52.08" y1="48.07" x2="52.17" y2="42.43" xlink:href="#linear-gradient9"/>
    <linearGradient id="linear-gradient16" x1="52.83" y1="48.09" x2="52.92" y2="42.44" xlink:href="#linear-gradient9"/>
    <linearGradient id="linear-gradient17" x1="53.47" y1="48.09" x2="53.56" y2="42.45" xlink:href="#linear-gradient9"/>
    <linearGradient id="linear-gradient18" x1="53.9" y1="48.1" x2="53.99" y2="42.46" xlink:href="#linear-gradient9"/>
    <linearGradient id="linear-gradient19" x1="54.09" y1="48.1" x2="54.18" y2="42.46" xlink:href="#linear-gradient9"/>
    <linearGradient id="linear-gradient20" x1="54.3" y1="48.11" x2="54.39" y2="42.46" xlink:href="#linear-gradient9"/>
    <linearGradient id="linear-gradient21" x1="54.27" y1="48.11" x2="54.36" y2="42.46" xlink:href="#linear-gradient9"/>
    <linearGradient id="linear-gradient22" x1="53.96" y1="48.1" x2="54.05" y2="42.46" xlink:href="#linear-gradient9"/>
    <linearGradient id="linear-gradient23" x1="53.45" y1="48.1" x2="53.54" y2="42.45" xlink:href="#linear-gradient9"/>
    <linearGradient id="linear-gradient24" x1="52.82" y1="48.08" x2="52.91" y2="42.44" xlink:href="#linear-gradient9"/>
    <linearGradient id="linear-gradient25" x1="51.9" y1="48.07" x2="51.99" y2="42.43" xlink:href="#linear-gradient9"/>
    <linearGradient id="linear-gradient26" x1="52.71" y1="48.08" x2="52.8" y2="42.44" xlink:href="#linear-gradient9"/>
    <linearGradient id="linear-gradient27" x1="78.43" y1="38.15" x2="78.97" y2="38.15" xlink:href="#linear-gradient9"/>
    <linearGradient id="linear-gradient28" x1="78.27" y1="38.5" x2="78.92" y2="38.5" xlink:href="#linear-gradient9"/>
    <linearGradient id="linear-gradient29" x1="78.23" y1="38.9" x2="78.94" y2="38.9" xlink:href="#linear-gradient9"/>
    <linearGradient id="linear-gradient30" x1="78.27" y1="39.2" x2="78.94" y2="39.2" xlink:href="#linear-gradient9"/>
    <linearGradient id="linear-gradient31" x1="78.45" y1="39.44" x2="79.03" y2="39.44" xlink:href="#linear-gradient9"/>
    <linearGradient id="linear-gradient32" x1="78.77" y1="39.59" x2="79.07" y2="39.59" xlink:href="#linear-gradient9"/>
    <linearGradient id="linear-gradient33" x1="79.09" y1="39.61" x2="79.27" y2="39.61" xlink:href="#linear-gradient9"/>
    <linearGradient id="linear-gradient34" x1="79.22" y1="39.53" x2="79.59" y2="39.53" xlink:href="#linear-gradient9"/>
    <linearGradient id="linear-gradient35" x1="79.29" y1="39.41" x2="79.83" y2="39.41" xlink:href="#linear-gradient9"/>
    <linearGradient id="linear-gradient36" x1="79.29" y1="39.15" x2="79.96" y2="39.15" xlink:href="#linear-gradient9"/>
    <linearGradient id="linear-gradient37" x1="79.36" y1="38.85" x2="80.05" y2="38.85" xlink:href="#linear-gradient9"/>
    <linearGradient id="linear-gradient38" x1="79.35" y1="38.46" x2="80.04" y2="38.46" xlink:href="#linear-gradient9"/>
    <linearGradient id="linear-gradient39" x1="79.3" y1="38.18" x2="79.89" y2="38.18" xlink:href="#linear-gradient9"/>
    <linearGradient id="linear-gradient40" x1="79.19" y1="37.97" x2="79.64" y2="37.97" xlink:href="#linear-gradient9"/>
    <linearGradient id="linear-gradient41" x1="79.12" y1="37.9" x2="79.28" y2="37.9" xlink:href="#linear-gradient9"/>
    <linearGradient id="linear-gradient42" x1="78.69" y1="37.99" x2="79.06" y2="37.99" xlink:href="#linear-gradient9"/>
    <linearGradient id="linear-gradient43" x1="78.93" y1="38.75" x2="79.37" y2="38.75" xlink:href="#linear-gradient9"/>
    <linearGradient id="linear-gradient44" x1="55.01" y1="41.33" x2="44.83" y2="42.31" xlink:href="#linear-gradient6"/>
    <linearGradient id="linear-gradient45" x1="39.96" y1="46.72" x2="42.14" y2="44.86" xlink:href="#linear-gradient"/>
    <linearGradient id="linear-gradient46" x1="57.43" y1="36.36" x2="42.39" y2="35.5" xlink:href="#linear-gradient6"/>
    <linearGradient id="linear-gradient47" x1="33.18" y1="39.19" x2="38.55" y2="40.49" xlink:href="#linear-gradient"/>
    <linearGradient id="linear-gradient48" x1="74.05" y1="36.45" x2="74.51" y2="36.45" xlink:href="#linear-gradient6"/>
    <linearGradient id="linear-gradient49" x1="32.73" y1="37.46" x2="38.72" y2="38.11" xlink:href="#linear-gradient6"/>
    <linearGradient id="linear-gradient50" x1="32.67" y1="38" x2="38.66" y2="38.64" xlink:href="#linear-gradient6"/>
    <linearGradient id="linear-gradient51" x1="32.59" y1="38.71" x2="38.58" y2="39.35" xlink:href="#linear-gradient6"/>
    <linearGradient id="linear-gradient52" x1="32.53" y1="39.34" x2="38.51" y2="39.98" xlink:href="#linear-gradient6"/>
    <linearGradient id="linear-gradient53" x1="32.45" y1="40.04" x2="38.44" y2="40.69" xlink:href="#linear-gradient6"/>
    <linearGradient id="linear-gradient54" x1="32.38" y1="40.71" x2="38.37" y2="41.35" xlink:href="#linear-gradient6"/>
    <linearGradient id="linear-gradient55" x1="32.31" y1="41.34" x2="38.3" y2="41.98" xlink:href="#linear-gradient6"/>
    <linearGradient id="linear-gradient56" x1="64.85" y1="37.22" x2="65.24" y2="37.22" xlink:href="#linear-gradient6"/>
    <linearGradient id="linear-gradient57" x1="58.13" y1="37.6" x2="58.53" y2="37.6" xlink:href="#linear-gradient"/>
    <linearGradient id="linear-gradient58" x1="77.6" y1="36.27" x2="78.23" y2="36.27" xlink:href="#linear-gradient"/>
    <linearGradient id="linear-gradient59" x1="78.72" y1="35.98" x2="77.28" y2="36.11" xlink:href="#linear-gradient"/>
    <linearGradient id="linear-gradient60" x1="64.66" y1="37.01" x2="63.19" y2="37.08" xlink:href="#linear-gradient"/>
    <linearGradient id="linear-gradient61" x1="59.31" y1="35.63" x2="58.07" y2="35.69" xlink:href="#linear-gradient"/>
    <linearGradient id="linear-gradient62" x1="62.86" y1="33.37" x2="63.83" y2="33.37" xlink:href="#linear-gradient6"/>
    <linearGradient id="linear-gradient63" x1="63.39" y1="33.35" x2="64.35" y2="33.35" xlink:href="#linear-gradient6"/>
    <linearGradient id="linear-gradient64" x1="64.05" y1="33.36" x2="64.98" y2="33.36" xlink:href="#linear-gradient6"/>
    <linearGradient id="linear-gradient65" x1="74.96" y1="33.71" x2="75.69" y2="33.71" xlink:href="#linear-gradient9"/>
    <linearGradient id="linear-gradient66" x1="75.34" y1="33.68" x2="76.07" y2="33.68" xlink:href="#linear-gradient9"/>
    <linearGradient id="linear-gradient67" x1="31.81" y1="39.43" x2="36.28" y2="39.03" gradientUnits="userSpaceOnUse">
      <stop offset="0" stop-color="#b0863e"/>
      <stop offset=".53" stop-color="#ecd393"/>
      <stop offset="1" stop-color="#fff9ba"/>
    </linearGradient>
    <linearGradient id="linear-gradient68" x1="48.93" y1="41.13" x2="44.15" y2="41.13" xlink:href="#linear-gradient"/>
    <linearGradient id="linear-gradient69" x1="48.93" y1="39.31" x2="44.15" y2="39.31" gradientUnits="userSpaceOnUse">
      <stop offset="0" stop-color="#b07d23"/>
      <stop offset=".53" stop-color="#ecd393"/>
      <stop offset=".78" stop-color="#ecd494"/>
      <stop offset=".88" stop-color="#f0db9b"/>
      <stop offset=".94" stop-color="#f5e6a7"/>
      <stop offset="1" stop-color="#fef7b8"/>
      <stop offset="1" stop-color="#fff9ba"/>
    </linearGradient>
    <linearGradient id="linear-gradient70" x1="48.93" y1="39.45" x2="44.15" y2="39.45" xlink:href="#linear-gradient69"/>
    <linearGradient id="linear-gradient71" x1="57.44" y1="40.23" x2="52.91" y2="39.2" xlink:href="#linear-gradient67"/>
    <linearGradient id="linear-gradient72" x1="77.45" y1="39.56" x2="77.45" y2="39.56" xlink:href="#linear-gradient67"/>
    <linearGradient id="linear-gradient73" x1="83.98" y1="35.2" x2="75.13" y2="35.78" xlink:href="#linear-gradient6"/>
    <linearGradient id="linear-gradient74" x1="54.41" y1="38.46" x2="54.44" y2="38.46" xlink:href="#linear-gradient"/>
    <linearGradient id="linear-gradient75" x1="62.52" y1="34.92" x2="60.71" y2="34.51" xlink:href="#linear-gradient67"/>
    <linearGradient id="linear-gradient76" x1="44.9" y1="34.35" x2="44" y2="34.15" xlink:href="#linear-gradient67"/>
    <linearGradient id="linear-gradient77" x1="57.99" y1="31.07" x2="57.99" y2="15.46" xlink:href="#linear-gradient6"/>
    <linearGradient id="linear-gradient78" x1="51.84" y1="31.06" x2="51.84" y2="15.46" xlink:href="#linear-gradient6"/>
    <linearGradient id="linear-gradient79" x1="63.63" y1="31.06" x2="63.63" y2="15.46" xlink:href="#linear-gradient6"/>
    <linearGradient id="linear-gradient80" x1="50.22" y1="31.07" x2="50.22" y2="15.46" xlink:href="#linear-gradient6"/>
    <linearGradient id="linear-gradient81" x1="60.52" y1="31.07" x2="60.52" y2="15.46" xlink:href="#linear-gradient6"/>
    <linearGradient id="linear-gradient82" x1="67.56" y1="31.07" x2="67.56" y2="15.46" xlink:href="#linear-gradient6"/>
    <linearGradient id="linear-gradient83" x1="49.1" y1="31.07" x2="49.1" y2="15.46" xlink:href="#linear-gradient6"/>
    <linearGradient id="linear-gradient84" x1="60.7" y1="31.07" x2="60.7" y2="15.46" xlink:href="#linear-gradient6"/>
    <linearGradient id="linear-gradient85" x1="68.48" y1="31.07" x2="68.48" y2="15.46" xlink:href="#linear-gradient6"/>
    <linearGradient id="linear-gradient86" x1="48.33" y1="31.07" x2="48.33" y2="15.46" xlink:href="#linear-gradient6"/>
    <linearGradient id="linear-gradient87" x1="60.26" y1="31.07" x2="60.26" y2="15.46" xlink:href="#linear-gradient6"/>
    <linearGradient id="linear-gradient88" x1="69.69" y1="31.07" x2="69.69" y2="15.46" xlink:href="#linear-gradient6"/>
    <linearGradient id="linear-gradient89" x1="44.96" y1="31.07" x2="44.96" y2="15.46" xlink:href="#linear-gradient6"/>
    <linearGradient id="linear-gradient90" x1="54.68" y1="31.07" x2="54.68" y2="15.46" xlink:href="#linear-gradient6"/>
    <linearGradient id="linear-gradient91" x1="60.15" y1="31.07" x2="60.15" y2="15.46" xlink:href="#linear-gradient6"/>
    <linearGradient id="linear-gradient92" x1="70.46" y1="31.07" x2="70.46" y2="15.46" xlink:href="#linear-gradient6"/>
    <linearGradient id="linear-gradient93" x1="44.46" y1="31.07" x2="44.46" y2="15.46" xlink:href="#linear-gradient6"/>
    <linearGradient id="linear-gradient94" x1="55.06" y1="31.07" x2="55.06" y2="15.46" xlink:href="#linear-gradient6"/>
    <linearGradient id="linear-gradient95" x1="60.15" y1="31.07" x2="60.15" y2="15.46" xlink:href="#linear-gradient6"/>
    <linearGradient id="linear-gradient96" x1="70.96" y1="31.07" x2="70.96" y2="15.46" xlink:href="#linear-gradient6"/>
    <linearGradient id="linear-gradient97" x1="41.1" y1="31.07" x2="41.1" y2="15.46" xlink:href="#linear-gradient6"/>
    <linearGradient id="linear-gradient98" x1="49.64" y1="31.07" x2="49.64" y2="15.46" xlink:href="#linear-gradient6"/>
    <linearGradient id="linear-gradient99" x1="55.07" y1="31.07" x2="55.07" y2="15.46" xlink:href="#linear-gradient6"/>
    <linearGradient id="linear-gradient100" x1="60.15" y1="31.07" x2="60.15" y2="15.46" xlink:href="#linear-gradient6"/>
    <linearGradient id="linear-gradient101" x1="71.41" y1="31.07" x2="71.41" y2="15.46" xlink:href="#linear-gradient6"/>
    <linearGradient id="linear-gradient102" x1="40.73" y1="31.07" x2="40.73" y2="15.46" xlink:href="#linear-gradient6"/>
    <linearGradient id="linear-gradient103" x1="49.64" y1="31.07" x2="49.64" y2="15.46" xlink:href="#linear-gradient6"/>
    <linearGradient id="linear-gradient104" x1="55.07" y1="31.07" x2="55.07" y2="15.46" xlink:href="#linear-gradient6"/>
    <linearGradient id="linear-gradient105" x1="60.15" y1="31.07" x2="60.15" y2="15.45" xlink:href="#linear-gradient6"/>
    <linearGradient id="linear-gradient106" x1="65.79" y1="31.07" x2="65.79" y2="15.46" xlink:href="#linear-gradient6"/>
    <linearGradient id="linear-gradient107" x1="75.1" y1="31.07" x2="75.1" y2="15.46" xlink:href="#linear-gradient6"/>
    <linearGradient id="linear-gradient108" x1="37.96" y1="31.07" x2="37.96" y2="15.46" xlink:href="#linear-gradient6"/>
    <linearGradient id="linear-gradient109" x1="44.6" y1="31.07" x2="44.6" y2="15.46" xlink:href="#linear-gradient6"/>
    <linearGradient id="linear-gradient110" x1="71.73" y1="31.07" x2="71.73" y2="15.48" xlink:href="#linear-gradient6"/>
    <linearGradient id="linear-gradient111" x1="77.53" y1="31.07" x2="77.53" y2="15.46" xlink:href="#linear-gradient6"/>
    <linearGradient id="linear-gradient112" x1="62.99" y1="19.95" x2="62.99" y2="19.94" xlink:href="#linear-gradient6"/>
    <linearGradient id="linear-gradient113" x1="57.55" y1="31.07" x2="57.55" y2="15.46" xlink:href="#linear-gradient6"/>
    <linearGradient id="linear-gradient114" x1="62.39" y1="28.63" x2="62.39" y2="16.41" xlink:href="#linear-gradient6"/>
    <linearGradient id="linear-gradient115" x1="62.63" y1="19.97" x2="62.63" y2="19.92" xlink:href="#linear-gradient6"/>
    <linearGradient id="linear-gradient116" x1="62.99" y1="20.18" x2="62.99" y2="19.86" xlink:href="#linear-gradient6"/>
    <linearGradient id="linear-gradient117" x1="63.42" y1="30.69" x2="63.42" y2="15.61" xlink:href="#linear-gradient6"/>
    <linearGradient id="linear-gradient118" x1="62.99" y1="20.54" x2="62.99" y2="19.72" xlink:href="#linear-gradient6"/>
    <linearGradient id="linear-gradient119" x1="52.67" y1="31.21" x2="52.09" y2="31.24" xlink:href="#linear-gradient67"/>
    <linearGradient id="linear-gradient120" x1="57.53" y1="51.91" x2="57.53" y2="11.98" xlink:href="#linear-gradient6"/>
    <linearGradient id="linear-gradient121" x1="24.46" y1="31.85" x2="29.36" y2="31.85" xlink:href="#linear-gradient"/>
    <linearGradient id="linear-gradient122" x1="3010.56" y1="39.3" x2="3015.47" y2="39.3" gradientTransform="translate(3100.92) rotate(-180) scale(1 -1)" xlink:href="#linear-gradient"/>
    <linearGradient id="linear-gradient123" x1="71.95" y1="63.67" x2="71.95" y2="55.19" xlink:href="#linear-gradient6"/>
    <linearGradient id="linear-gradient124" x1="14.56" y1="63.07" x2="14.56" y2="47.98" xlink:href="#linear-gradient6"/>
    <linearGradient id="linear-gradient125" x1="77.77" y1="63.67" x2="77.77" y2="55.19" xlink:href="#linear-gradient6"/>
    <linearGradient id="linear-gradient126" x1="83.44" y1="63.67" x2="83.44" y2="55.19" xlink:href="#linear-gradient6"/>
    <linearGradient id="linear-gradient127" x1="89.92" y1="63.67" x2="89.92" y2="55.19" xlink:href="#linear-gradient6"/>
    <linearGradient id="linear-gradient128" x1="96.83" y1="63.67" x2="96.83" y2="55.19" xlink:href="#linear-gradient6"/>
    <linearGradient id="linear-gradient129" x1="104.09" y1="63.67" x2="104.09" y2="55.19" xlink:href="#linear-gradient6"/>
    <linearGradient id="linear-gradient130" x1="110.09" y1="63.67" x2="110.09" y2="55.19" xlink:href="#linear-gradient6"/>
    <linearGradient id="linear-gradient131" x1="115.7" y1="63.67" x2="115.7" y2="55.19" xlink:href="#linear-gradient6"/>
    <linearGradient id="linear-gradient132" x1="6.47" y1="64.08" x2="6.56" y2="52.6" xlink:href="#linear-gradient6"/>
    <linearGradient id="linear-gradient133" x1="21.28" y1="63.93" x2="21.11" y2="51.29" xlink:href="#linear-gradient6"/>
    <linearGradient id="linear-gradient134" x1="28.53" y1="63.63" x2="28.51" y2="47.47" xlink:href="#linear-gradient6"/>
    <linearGradient id="linear-gradient135" x1="36.83" y1="62.51" x2="36.72" y2="48.84" xlink:href="#linear-gradient6"/>
    <linearGradient id="linear-gradient136" x1="42.83" y1="63.67" x2="42.84" y2="57.29" xlink:href="#linear-gradient6"/>
    <linearGradient id="linear-gradient137" x1="48.09" y1="63.91" x2="47.99" y2="49.99" xlink:href="#linear-gradient6"/>
    <linearGradient id="linear-gradient138" x1="54.24" y1="63.85" x2="54.12" y2="52.34" xlink:href="#linear-gradient6"/>
    <linearGradient id="linear-gradient139" x1="60.35" y1="63.6" x2="60.46" y2="52.42" xlink:href="#linear-gradient6"/>
    <linearGradient id="linear-gradient140" x1="29.55" y1="21.36" x2="35.26" y2="21.36" xlink:href="#linear-gradient"/>
    <linearGradient id="linear-gradient141" x1="32.74" y1="16.12" x2="38.78" y2="16.12" xlink:href="#linear-gradient"/>
    <linearGradient id="linear-gradient142" x1="37.18" y1="12.19" x2="42.95" y2="12.19" xlink:href="#linear-gradient"/>
    <linearGradient id="linear-gradient143" x1="46.2" y1="8.12" x2="51.12" y2="8.12" xlink:href="#linear-gradient"/>
    <linearGradient id="linear-gradient144" x1="52.43" y1="6.85" x2="56.9" y2="6.85" xlink:href="#linear-gradient"/>
    <linearGradient id="linear-gradient145" x1="58.55" y1="6.81" x2="62.99" y2="6.81" xlink:href="#linear-gradient"/>
    <linearGradient id="linear-gradient146" x1="67.05" y1="8.94" x2="72.08" y2="8.94" xlink:href="#linear-gradient"/>
    <linearGradient id="linear-gradient147" x1="71.77" y1="12.13" x2="77.36" y2="12.13" xlink:href="#linear-gradient"/>
    <linearGradient id="linear-gradient148" x1="76.64" y1="15.94" x2="82.25" y2="15.94" xlink:href="#linear-gradient"/>
    <linearGradient id="linear-gradient149" x1="80.54" y1="21.36" x2="86.25" y2="21.36" xlink:href="#linear-gradient"/>
  </defs>
  <g>
    <rect class="st146" x="74.15" y="66.32" width="43.14" height="1.4"/>
    <polygon class="st40" points="94.57 71.01 74.15 71.01 74.15 69.61 96.39 69.62 94.57 71.01"/>
  </g>
  <g>
    <rect class="st3" x="2.73" y="66.32" width="40.58" height="1.4" transform="translate(46.04 134.05) rotate(-180)"/>
    <polygon class="st106" points="24.1 71.01 43.31 71.01 43.31 69.61 22.39 69.62 24.1 71.01"/>
  </g>
  <g>
    <path class="st108" d="M44.38,72.12v-.14c.37-.09.49-.12.68-.3.09-.08.15-.17.18-.25.05-.16.12-.68.14-1.12v-3.12c-.01-.24-.02-.47-.05-.7-.03-.22-.05-.37-.08-.47-.05-.17-.25-.37-.41-.43-.08-.03-.21-.06-.37-.1v-.14h3.18v.14c-.36.09-.48.12-.65.28-.09.07-.15.15-.18.22-.05.15-.12.59-.12.98-.01.2-.01.48-.01.85v2.86c0,.32.09.44.39.44h1.08c.52,0,.88-.07,1.09-.21.2-.14.43-.47.69-1.01l.15.04-.31,1.05c-.11.36-.17.64-.17.82,0,.14.02.23.06.3h-5.27Z"/>
    <path class="st108" d="M51.06,72.12v-.14c.32-.08.42-.08.57-.26.07-.09.12-.18.16-.27.04-.17.1-.72.11-1.22v-3.05c-.01-.24-.02-.47-.04-.71-.03-.23-.05-.38-.07-.47-.05-.17-.24-.37-.38-.42-.07-.02-.2-.05-.35-.09v-.14h3.02v.14c-.32.07-.43.08-.58.25-.08.08-.14.17-.17.25-.05.18-.11.7-.11,1.18-.01.24-.01.59-.01,1.05v1.01c0,.47,0,.81.01,1.05,0,.24.01.48.04.71.02.24.04.39.06.48.04.17.24.37.37.42.07.02.18.05.33.09v.14h-2.96Z"/>
    <path class="st108" d="M55.11,72.12v-.14c.32-.08.43-.09.6-.27.08-.09.15-.18.18-.27.06-.17.17-.73.22-1.23.02-.24.05-.61.1-1.1l.08-.84c.07-.82.11-1.39.11-1.71,0-.38-.05-.63-.17-.76-.11-.11-.34-.22-.7-.3v-.14h2.37c-.02.27.11.68.41,1.2l1.45,2.85c.04.07.08.07.12,0l1.53-2.84c.3-.54.45-.95.44-1.22h2.33v.14c-.34.07-.57.17-.69.28-.11.11-.17.36-.17.75,0,.32.04.91.11,1.78l.1,1.14c.04.43.07.74.09.96.02.22.05.44.1.64.04.22.08.36.11.44.15.29.32.44.73.5v.14h-2.94v-.14c.3-.08.5-.18.59-.29.09-.11.14-.34.14-.71,0-.3-.03-.81-.08-1.53l-.15-1.85c-.03-.09-.09-.09-.14-.01l-2.11,4.12h-.24l-2.09-4.11s-.04-.06-.07-.06-.05.02-.05.07l-.14,1.68c-.06.74-.09,1.3-.09,1.66s.05.59.15.71c.09.12.29.23.61.31v.14h-2.88Z"/>
    <path class="st108" d="M65.82,68.82c0-2.27,1.21-3.55,3.29-3.55s3.16,1.19,3.16,3.43c0,1.13-.3,2-.9,2.62-.61.61-1.41.91-2.4.91-1.99,0-3.15-1.22-3.15-3.41ZM70.83,68.71c0-1.57-.62-2.37-1.76-2.37s-1.81.85-1.81,2.4.65,2.4,1.75,2.4c1.16,0,1.82-.86,1.82-2.43Z"/>
  </g>
  <path class="st97" d="M36.16,52.66H2.73v-1.3h32.19c.16.22.74.98,1.24,1.3Z"/>
  <path class="st103" d="M79.03,52.21h38.81s0-1.3,0-1.3h-37.36c-.19.22-.85.98-1.44,1.3Z"/>
  <g>
    <polygon class="st58" points="49.05 17.49 49.05 17.49 49.05 17.49 49.05 17.49"/>
    <polygon class="st58" points="49.43 17.5 49.43 17.52 49.43 17.51 49.43 17.5 49.43 17.5"/>
    <path class="st129" d="M80.09,41.84l-.45,1.13c-7.93,1.44-21.54,7.71-24.21,8.97-.3.14-.46.22-.46.22l-13.58.05c.14-.09.28-.18.44-.27,7.45-4.22,38.25-10.1,38.25-10.1Z"/>
    <path class="st93" d="M70.83,51.94c.27.12.67.19,1.2.2l-11.53.03s.08-.08.26-.23c1.15-.99,6.32-4.95,18.61-8.33-.16.1-11.46,7.05-8.53,8.33Z"/>
    <polygon class="st55" points="77.62 40.32 56.55 44.32 56.75 43.67 77.55 39.94 77.62 40.32"/>
    <g>
      <path class="st43" d="M55.47,45.27c-.63,1.07-1.46,1.49-2.12,1.63-.78.18-1.61-.02-2.24-.52-1.02-.82-.9-2-.9-2,.92,2.35,2.32,2.36,3.23,2.04.58-.2,1.07-.59,1.44-1.07,1.09-1.42.81-2.82.49-3.62-.22-.54-.59-1-1.08-1.3-1.4-.85-2.73.1-2.73.1.15-.57.7-.8,1.19-.89.55-.1,1.12-.03,1.62.21.87.42,1.31,1.2,1.54,1.94.35,1.17.18,2.44-.44,3.49Z"/>
      <path class="st17" d="M52.26,42.79l-.07.05-.03-.03c-.19-.22-.39-.42-.6-.61-.1-.1-.21-.19-.32-.28-.11-.09-.22-.18-.33-.25l-.18-.12.29-.36.15.15c.11.11.21.22.3.34.09.11.19.23.27.35.17.24.33.48.48.73l.02.04Z"/>
      <path class="st56" d="M52.14,43.24l-.04.07-.04-.02c-.25-.13-.51-.25-.78-.35-.13-.05-.27-.1-.4-.14-.13-.04-.27-.08-.4-.11l-.21-.04.14-.44.19.08c.15.06.27.13.4.2.13.07.26.15.38.22.25.16.49.33.71.51l.04.03Z"/>
      <path class="st79" d="M52.17,43.49v.08h-.05c-.29,0-.57.02-.85.06-.14.02-.28.04-.42.06-.14.02-.28.05-.4.09l-.2.06-.08-.45.21-.02c.16-.01.3-.01.45-.01.15,0,.29,0,.44.02.29.02.58.06.87.11h.04Z"/>
      <path class="st141" d="M52.18,43.77l-.04.02c-.26.12-.52.25-.76.39-.12.07-.24.15-.36.23-.12.08-.24.16-.34.24l-.16.13-.26-.38.19-.1c.14-.08.27-.13.41-.19.14-.06.27-.11.41-.16.28-.1.56-.18.84-.25h.04s.03.07.03.07Z"/>
      <path class="st102" d="M52.43,44.04l-.03.03c-.21.19-.42.39-.61.61-.09.11-.19.21-.27.32-.09.11-.17.23-.24.33l-.12.18-.36-.29.15-.15c.11-.11.22-.21.33-.31.11-.1.23-.19.34-.28.23-.18.48-.34.73-.49l.04-.02.05.07Z"/>
      <path class="st117" d="M52.56,44.12v.04c-.11.27-.19.55-.26.82-.03.14-.06.28-.08.42-.02.14-.04.28-.05.41l-.02.21-.46-.08.06-.2c.04-.15.09-.29.14-.43.05-.14.11-.27.17-.41.12-.27.25-.53.4-.78l.02-.04.07.03Z"/>
      <path class="st61" d="M53.12,46.01l-.45.1-.03-.21c-.02-.16-.03-.3-.03-.45,0-.15,0-.29,0-.44,0-.29.03-.59.07-.87v-.04s.09,0,.09,0v.05c.02.29.05.57.09.85.02.14.05.28.08.42.03.14.07.28.11.4l.07.2Z"/>
      <path class="st121" d="M54.04,45.66l-.39.25-.09-.19c-.07-.14-.13-.28-.18-.41-.05-.14-.1-.28-.15-.42-.09-.28-.16-.56-.22-.85v-.04s.07-.02.07-.02l.02.04c.11.27.23.52.37.77.07.12.14.25.22.37.07.12.15.24.23.34l.13.17Z"/>
      <path class="st45" d="M54.73,45.13l-.29.36-.15-.15c-.11-.11-.21-.22-.31-.33-.1-.11-.19-.23-.28-.35-.18-.23-.34-.48-.49-.73l-.02-.04.07-.05.03.03c.19.21.39.42.6.61.11.1.21.19.32.28.11.09.23.18.33.25l.18.12Z"/>
      <path class="st78" d="M55.12,44.16l-.1.45-.2-.07c-.15-.05-.28-.11-.42-.17-.13-.06-.27-.12-.4-.19-.26-.13-.5-.28-.74-.44,0,0,0,0-.01,0l-.04-.03.04-.07.04.02s.02,0,.03.01c.26.11.52.2.78.27.14.04.27.08.41.11.14.03.28.06.41.08l.21.03Z"/>
      <path class="st96" d="M55.37,43.71h-.21c-.16-.01-.3-.03-.45-.05-.15-.02-.29-.04-.44-.07-.29-.05-.57-.12-.85-.21h0s-.04-.01-.04-.01l.02-.08h.03s.01,0,.01,0c.29.03.57.04.86.04.14,0,.28,0,.42-.02.14,0,.28-.02.41-.04l.21-.03.03.46Z"/>
      <path class="st24" d="M55.35,42.68l-.2.07c-.15.05-.29.09-.43.13-.14.04-.29.07-.43.09-.29.05-.58.09-.87.11h-.02s-.03,0-.03,0v-.08s0,0,0,0h.03c.28-.08.55-.17.81-.28.13-.05.26-.11.39-.17.13-.06.26-.12.37-.19l.18-.11.2.42Z"/>
      <path class="st71" d="M54.9,41.64l-.16.14c-.12.11-.23.2-.35.29-.12.09-.24.18-.36.26-.24.16-.49.31-.75.45l-.04.02-.04-.07.03-.03c.22-.18.44-.37.64-.57.1-.1.2-.2.29-.31.09-.1.19-.22.26-.32l.12-.17.35.3Z"/>
      <path class="st50" d="M54.2,40.93l-.11.18c-.08.14-.16.26-.25.38-.09.12-.17.24-.27.35-.18.23-.38.45-.58.65l-.03.03-.06-.05.03-.04c.16-.24.31-.48.44-.74.07-.13.13-.25.19-.38.06-.13.11-.26.15-.38l.07-.2.42.19Z"/>
      <path class="st63" d="M53.17,40.48v.21c-.01.16-.03.3-.05.45-.02.15-.04.29-.07.44-.06.29-.13.57-.21.85v.04s-.09-.02-.09-.02v-.04c.04-.29.05-.57.05-.86,0-.14,0-.28-.01-.42,0-.14-.02-.28-.04-.41l-.03-.21.46-.03Z"/>
      <path class="st113" d="M52.53,42.61l-.08.02-.02-.04c-.11-.26-.24-.52-.38-.77-.07-.12-.14-.25-.22-.36-.08-.12-.16-.24-.24-.34l-.13-.17.39-.25.1.19c.07.14.13.27.18.41.06.14.1.28.15.42.09.28.17.56.23.84v.04Z"/>
      <path class="st39" d="M53.43,43.29s0,0,0,.01c0,.03,0,.06,0,.09-.01.1-.05.2-.1.29-.02.03-.04.05-.06.08-.12.14-.28.22-.47.22-.35,0-.64-.31-.64-.69s.29-.69.64-.69c.26,0,.48.16.58.4.01.03.02.05.03.08.02.06.03.13.03.2Z"/>
    </g>
    <g>
      <path class="st29" d="M78.97,38.52l-.02.02v-.02c-.08-.1-.15-.2-.22-.29-.04-.05-.07-.09-.11-.13-.04-.04-.08-.08-.12-.12l-.06-.06.1-.17.05.07c.04.05.07.1.11.16.03.05.06.11.09.16.06.11.12.23.17.35v.02Z"/>
      <path class="st85" d="M78.92,38.73l-.02.03h-.01c-.09-.07-.18-.13-.27-.18-.05-.02-.09-.05-.14-.07-.05-.02-.09-.04-.14-.05l-.07-.02.05-.21.07.04c.05.03.1.06.14.1.05.03.09.07.13.11.09.07.17.15.25.24h.01Z"/>
      <path class="st73" d="M78.94,38.85v.04h-.02c-.1,0-.2.01-.3.03-.05,0-.1.02-.15.03-.05.01-.1.03-.14.04l-.07.03-.03-.21h.07c.06-.01.11-.02.16-.01.05,0,.1,0,.15,0,.1.01.2.03.3.05h.02Z"/>
      <path class="st67" d="M78.94,38.98h-.01c-.09.06-.18.13-.27.19-.04.03-.09.07-.13.11-.04.04-.08.08-.12.12l-.06.06-.09-.18.06-.05s.09-.06.14-.09c.05-.03.1-.05.14-.08.1-.05.19-.08.29-.12h.02s0,.03,0,.03Z"/>
      <path class="st98" d="M79.03,39.11h-.01c-.07.1-.15.2-.21.3-.03.05-.06.1-.1.15-.03.05-.06.11-.09.16l-.04.08-.13-.14.05-.07c.04-.05.08-.1.12-.15.04-.04.08-.09.12-.13.08-.08.17-.16.25-.23h.01s.02.02.02.02Z"/>
      <path class="st22" d="M79.07,39.15v.02c-.04.13-.07.26-.09.39-.01.07-.02.13-.03.2,0,.06-.02.13-.02.19v.1s-.16-.04-.16-.04l.02-.1c.02-.07.03-.14.05-.2.02-.07.04-.13.06-.19.04-.13.09-.25.14-.37v-.02s.03.02.03.02Z"/>
      <path class="st16" d="M79.27,40.04l-.16.05v-.1c-.02-.08-.02-.14-.02-.21s0-.14,0-.21c0-.14.01-.28.03-.41v-.02s.03,0,.03,0v.02c0,.14.02.27.03.4,0,.07.02.13.03.2.01.06.02.13.04.19l.02.09Z"/>
      <path class="st10" d="M79.59,39.87l-.14.12-.03-.09c-.03-.07-.04-.13-.06-.2-.02-.06-.04-.13-.05-.2-.03-.13-.06-.27-.08-.4v-.02s.02-.01.02-.01v.02c.04.13.09.25.14.36.02.06.05.12.08.17.03.06.05.11.08.16l.05.08Z"/>
      <path class="st36" d="M79.83,39.62l-.1.17-.05-.07c-.04-.05-.07-.1-.11-.16-.03-.05-.06-.11-.1-.16-.06-.11-.12-.23-.17-.34v-.02s.02-.02.02-.02v.02c.08.1.15.2.22.29.04.04.07.09.11.13.04.04.08.08.12.12l.06.06Z"/>
      <path class="st6" d="M79.96,39.17l-.04.21-.07-.03c-.05-.02-.1-.05-.15-.08-.05-.03-.09-.06-.14-.09-.09-.06-.18-.13-.26-.2,0,0,0,0,0,0h-.01s.01-.05.01-.05h.01s0,.01.01.01c.09.05.18.09.27.13.05.02.1.04.14.05.05.02.1.03.14.04h.07Z"/>
      <path class="st27" d="M80.05,38.95h-.07c-.06,0-.11-.01-.16-.02-.05,0-.1-.02-.15-.03-.1-.03-.2-.06-.3-.1h0s-.01,0-.01,0v-.04s.02,0,.02,0h0c.1.02.2.02.3.02.05,0,.1,0,.15,0,.05,0,.1-.01.14-.02l.07-.02v.22Z"/>
      <path class="st112" d="M80.04,38.47l-.07.03c-.05.02-.1.04-.15.06-.05.02-.1.03-.15.04-.1.03-.2.04-.3.05h-.02s0-.04,0-.04h0s.01,0,.01,0c.1-.04.19-.08.28-.13.05-.02.09-.05.14-.08.04-.03.09-.06.13-.09l.06-.05.07.2Z"/>
      <path class="st7" d="M79.89,37.98l-.05.07c-.04.05-.08.09-.12.14-.04.04-.08.08-.12.12-.08.08-.17.15-.26.21h-.01s-.02-.02-.02-.02h.01c.08-.1.15-.19.22-.28.03-.05.07-.1.1-.15.03-.05.06-.1.09-.15l.04-.08.12.14Z"/>
      <path class="st88" d="M79.64,37.64l-.04.09c-.03.07-.06.12-.09.18-.03.06-.06.11-.09.17-.06.11-.13.21-.2.31v.02s-.03-.02-.03-.02v-.02c.06-.11.12-.23.16-.35.02-.06.04-.12.06-.18.02-.06.04-.12.05-.18l.02-.09.15.09Z"/>
      <path class="st148" d="M79.28,37.43v.1c0,.08-.01.14-.02.21,0,.07-.01.14-.02.21-.02.14-.04.27-.07.4v.02s-.03,0-.03,0v-.02c.01-.13.02-.27.02-.4,0-.07,0-.13,0-.2,0-.07,0-.13-.01-.19v-.1s.15-.01.15-.01Z"/>
      <path class="st84" d="M79.06,38.43h-.03s0,0,0,0c-.04-.13-.08-.25-.13-.36-.02-.06-.05-.12-.08-.17-.03-.06-.05-.11-.08-.16l-.05-.08.14-.12.03.09c.03.07.04.13.06.2.02.06.04.13.05.2.03.13.06.26.08.4v.02Z"/>
      <path class="st52" d="M79.37,38.75h0s0,.03,0,.05c0,.05-.02.1-.04.14,0,.01-.01.03-.02.04-.04.06-.1.1-.16.1-.1,0-.18-.09-.21-.23,0-.03,0-.06,0-.1,0-.18.1-.32.22-.32.09,0,.17.08.2.19,0,.01,0,.03.01.04,0,.03,0,.06,0,.1Z"/>
    </g>
    <path class="st147" d="M56,40.09c-.04-.08-.08-.16-.14-.23-.76-.89-1.56-1.07-1.56-1.07-1.06-.35-2.33.01-3.3,1.25,0,0,0,0,0,.01-.07.11-1.24,2-1.35,3.57,0,0-.13,1.31-.59,1.46,0,0-.02,0-.03,0-.31.04-5.82.78-12.13-.09l-.93-.18-.96-.18-.91-.17s-.31-.05-.66-.22c-.07-.04-.1-.13-.04-.2l.42-.55c.06-.07.17-.07.22,0,.07.11.21.27.48.42,0,0,0,0,0,0,.08.04.17.09.27.14h0s0,0,0,0c.26.11.59.22,1.04.32.16.03.34.06.53.09,0,0,6.72,1,11.67.51,0,0,.94-.14,1.09-.89.06-.3.96-5.22,3.66-5.72.05,0,.09-.02.14-.03.18-.04.79-.16,1.49.1,0,0,.02,0,.03.01.97.44,1.34,1.01,1.48,1.34h0c.07.16.08.27.08.29Z"/>
    <path class="st142" d="M45.54,43.83l-.02.39c0,.13-.11.23-.24.23h-3.96s-.47-.02-.23-.42c-.03.03-.55.48-1.43.81h-.24s1.83-1.14,1.83-1.14c.08-.05.17-.07.26-.07l3.87.02c.1,0,.18.08.17.18Z"/>
    <path class="st68" d="M54.62,35.21l-.47.2c-8.29-.6-15.75.89-15.75.89l-.04-.47c1.75-.48,3.85-.73,5.96-.85.29-.02.59-.03.88-.04,4.83-.19,9.42.27,9.42.27Z"/>
    <path class="st144" d="M37,37.78s-.75,4.1-.83,4.5h.1s.47-2.82.93-4.48l-.2-.02Z"/>
    <path class="st139" d="M74.5,36.92c-.01.15-.05.29-.09.43,0,.02-.02.03-.04.02-.02,0-.02-.02-.02-.04h0c.03-.14.05-.28.04-.42,0-.14-.02-.28-.05-.42-.03-.14-.07-.27-.11-.4-.03-.1-.07-.19-.12-.28-.02-.03-.03-.06-.05-.09h0c-.03-.07-.01-.14.05-.18.06-.03.14-.01.17.05,0,0,0,0,0,.01.03.07.05.13.07.2.03.08.05.15.07.23.03.14.06.29.07.44.02.15.01.3,0,.44Z"/>
    <g>
      <path class="st75" d="M40.87,38.13s-.01.06-.03.11c-.57.02-3.55-.14-3.55-.14-.06,0-.12,0-.18,0-.06,0-.12,0-.18,0-1.51-.07-2.66-.37-2.66-.37l.08-.22c.16.09,1.32.21,2.62.33.06,0,.13.01.19.02,1.56.13,3.27.25,3.69.28Z"/>
      <path class="st124" d="M40.76,38.56c-.02.08-.05.16-.07.25-.41,0-2.13-.03-3.72-.1-.05,0-.09,0-.14,0-1.18-.06-2.26-.15-2.65-.29l.03-.35s.94.17,2.67.31c.05,0,.1,0,.16.01,1,.08,2.25.15,3.72.17Z"/>
      <path class="st128" d="M40.53,39.26c-.03.08-.06.17-.1.25-.51,0-2.14-.02-3.63-.09-.04,0-.07,0-.11,0-1.11-.06-2.12-.16-2.52-.32l.03-.38s.46.25,2.54.41c.04,0,.08,0,.12,0,.9.07,2.09.12,3.66.13Z"/>
      <path class="st116" d="M40.28,39.87c-.04.08-.08.16-.12.24-.44,0-1.99.01-3.48-.07-.03,0-.06,0-.09,0-.95-.05-1.87-.14-2.43-.29v-.26s.96.1,2.5.21c.03,0,.07,0,.1,0,.98.07,2.19.13,3.53.18Z"/>
      <path class="st33" d="M39.92,40.54c-.06.1-.12.19-.18.28-.43,0-1.87.02-3.2-.06-.03,0-.06,0-.09,0-1-.07-1.93-.2-2.3-.43l.07-.28s.82.22,2.3.36c.03,0,.06,0,.09,0,.89.09,2,.15,3.32.13Z"/>
      <path class="st122" d="M39.47,41.19c-.1.12-.2.24-.31.35-.24,0-1.55-.05-2.74-.13-.03,0-.06,0-.09,0-.88-.07-1.69-.16-1.92-.29l-.12-.23s.92.13,2.1.24c.03,0,.06,0,.09,0,.97.08,2.09.14,3,.07Z"/>
      <path class="st111" d="M38.69,41.94c-.07.05-.15.1-.23.15h0c-.41,0-1.29-.04-2.14-.13-.03,0-.06,0-.09,0-.68-.07-1.34-.18-1.73-.35v-.23s.7.19,1.77.35c.03,0,.06,0,.09.01.66.1,1.46.18,2.33.21Z"/>
    </g>
    <path class="st28" d="M65.23,37.78c-.01.17-.04.34-.1.51,0,.02-.02.03-.04.02-.02,0-.02-.02-.02-.04h0c.04-.16.05-.33.05-.49,0-.17-.02-.33-.04-.5-.02-.16-.06-.33-.09-.49-.04-.16-.08-.32-.13-.48h0s0-.02,0-.03c0-.06.03-.11.09-.13.07-.02.14.02.16.08,0,0,0,0,0,.01,0,0,0,.01,0,.02.04.16.06.32.08.49.02.17.04.34.05.51,0,.17.01.34,0,.52Z"/>
    <path class="st34" d="M58.52,38.15c-.01.17-.04.34-.1.51,0,.02-.02.03-.04.02-.02,0-.02-.02-.02-.04h0c.04-.16.05-.33.05-.49s-.02-.33-.04-.5c-.02-.17-.06-.33-.09-.49-.03-.12-.06-.24-.1-.36-.01-.04-.02-.08-.03-.12h0c-.02-.07.02-.14.08-.16.07-.02.14.02.16.08,0,0,0,0,0,.01.01.05.02.11.03.16.02.12.04.23.06.35.02.17.04.34.05.51,0,.17.01.34,0,.51Z"/>
    <path class="st11" d="M78.23,36.24c0,.07,0,.14-.01.21-.01.07-.02.13-.04.2-.02.06-.03.13-.05.19l-.07.19s-.02.02-.03.01c0,0-.02-.01-.01-.02h0s.04-.19.04-.19c.01-.06.02-.13.03-.19,0-.06,0-.13.01-.19,0-.06,0-.13-.02-.19,0-.01,0-.03,0-.04-.02-.1-.06-.2-.12-.28-.02-.02-.03-.04-.05-.06-.02-.02-.04-.04-.07-.05-.02-.02-.04-.03-.07-.04-.01,0-.03-.01-.04-.01h0s-.02,0-.02,0c-.07,0-.12-.06-.11-.13,0-.07.06-.12.13-.11,0,0,.02,0,.03,0h0s.05.02.07.03c.02,0,.04.02.05.03.03.02.07.04.1.07.04.04.08.08.1.12h0s.03.04.04.06c.07.13.1.28.1.42Z"/>
    <path class="st94" d="M78.18,36.04c0,.07-.04.13-.1.16-.02,0-.04.02-.06.02l-.74.07c-.1.01-.19-.06-.2-.16,0,0,0-.01,0-.02,0-.09.07-.17.17-.18l.67-.07h.07c.1-.02.19.06.2.16,0,0,0,.01,0,.02Z"/>
    <path class="st145" d="M64.53,36.77c0,.28-.22.52-.51.54l-.32.02c-.3.02-.55-.21-.57-.51l1.4-.08s0,.02,0,.03Z"/>
    <path class="st46" d="M59.19,35.39c0,.28-.22.52-.51.54h-.11c-.3.02-.55-.2-.57-.5l1.18-.07s0,.02,0,.03Z"/>
    <path class="st92" d="M63.75,34.73s-.02.03-.04.03c-.02,0-.03-.02-.03-.03h0c0-.24,0-.48-.05-.71-.01-.12-.04-.23-.06-.34l-.04-.17s-.01-.06-.02-.08l-.03-.08c-.07-.22-.15-.44-.26-.65-.1-.21-.22-.41-.35-.61h0s-.01-.07.02-.09c.02-.02.05-.01.07,0,.19.17.33.37.45.59.03.05.06.11.09.16l.08.17c.04.12.09.23.12.35l.03.09s.01.06.02.09c.01.06.03.12.04.18.01.12.03.25.03.37.01.25-.02.49-.08.73Z"/>
    <path class="st18" d="M64.28,34.71s-.02.03-.04.02c-.02,0-.03-.02-.03-.03h0c0-.24,0-.48-.05-.71-.01-.12-.04-.23-.06-.34l-.04-.17s-.01-.06-.02-.08l-.03-.08c-.07-.22-.16-.44-.26-.65-.1-.21-.22-.41-.35-.61h0s-.01-.07.02-.09c.02-.02.06-.01.07,0,.19.17.33.37.46.58.03.05.06.11.09.16l.08.17c.04.12.09.23.12.35l.03.09s.01.06.02.09c.01.06.03.12.04.18.01.12.03.25.03.37.01.25-.02.49-.08.73Z"/>
    <path class="st134" d="M64.89,34.7s-.02.03-.04.02c-.01,0-.02-.02-.02-.03h0c-.01-.24-.02-.48-.05-.71-.01-.12-.04-.23-.06-.34l-.04-.17-.02-.08-.03-.08c-.07-.22-.15-.44-.24-.66-.1-.21-.2-.42-.33-.63h0s0-.01,0-.02c0,0,.01,0,.01,0,.19.16.35.35.48.56.03.05.06.11.09.16l.08.17c.05.11.1.23.13.35.02.06.04.12.05.18.01.06.03.12.04.18.02.12.04.25.04.37.01.25-.02.5-.08.73Z"/>
    <path class="st80" d="M75.65,34.67s-.02.02-.03.02c-.01,0-.02-.01-.02-.02h0c-.01-.17-.02-.34-.05-.5-.01-.08-.03-.16-.05-.24l-.03-.12s-.01-.04-.02-.06l-.02-.06c-.05-.16-.12-.31-.2-.45-.08-.15-.17-.29-.26-.42h0s0-.05.01-.06c.02-.01.04,0,.05,0,.13.12.24.26.34.41.02.04.04.08.07.11l.06.12c.03.08.07.16.09.25l.02.06s.01.04.02.06c.01.04.02.08.03.13.01.09.03.17.03.26.02.18,0,.35-.04.52Z"/>
    <path class="st89" d="M76.02,34.64s-.02.02-.03.02c-.01,0-.02-.01-.02-.02h0c-.01-.17-.02-.34-.05-.5-.01-.08-.03-.16-.05-.24l-.03-.12s-.01-.04-.02-.06l-.02-.06c-.05-.16-.12-.31-.2-.45-.08-.15-.17-.29-.26-.42h0s0-.05.01-.06c.02-.01.04-.01.05,0,.13.12.24.26.34.41.02.04.04.08.07.11l.06.12c.03.08.07.16.09.25l.02.06s.01.04.02.06c.01.04.02.09.03.13.01.09.03.17.03.26.01.18,0,.35-.04.52Z"/>
    <path class="st87" d="M41.55,37.5s-.04-.03-.07-.04c-.18-.07-.36-.13-.54-.19l-2.99-.44c-.06,0-.1-.06-.09-.12v-.02s.05-.08.1-.09c.05,0,.09-.04.09-.09.02-.29.07-1.19-.24-1.38-.06-.04-.14,0-.15.08l-.18,1.45s-.04.09-.09.09c-.35.03-1.74.15-2.53.29-.11.02-.21.04-.3.07,0,0,.04-.06.3-.15.33-.13,1.03-.32,2.45-.55.05,0,.09-.05.09-.1v-.22c0-.07-.06-.12-.13-.1-.4.1-1.65.41-2.4.63-.11.03-.2.06-.29.09-.01,0-.02,0-.03.01-.09.07-.58.54-.59,2.23h0c0,.31,0,.65.04,1.04,0,0,.04.98.35,1.66.14.32.34.57.62.64,0,0,.12.06.35.13h0c.61.2,1.95.51,3.54.07.21-.07.42-.17.59-.3.18-.13.33-.3.46-.49.5-.75,1.33-2.12,1.85-3.49,0,0,.02-.02.03-.06h0c.05-.12.11-.4-.24-.65ZM41.16,38.23c-.03.1-.07.19-.1.28,0,0,0,0,0,0-.36,1.07-.74,1.83-1.1,2.38,0,0,0,0,0,0-.89,1.33-1.65,1.35-1.65,1.35h0c-.85.15-1.92.06-1.92.06-.97-.11-1.44-.39-1.68-.62-.13-.13-.18-.24-.21-.31-.02-.04-.02-.07-.02-.07-.02-.06-.04-.12-.06-.18h0c-.02-.08-.04-.16-.06-.24h0c-.04-.16-.07-.32-.09-.49-.02-.12-.03-.23-.04-.35,0-.1-.01-.19-.02-.29h0c0-.09,0-.18,0-.28,0-.13,0-.26,0-.38,0-.13,0-.26.02-.39,0-.1.01-.2.02-.29.01-.13.02-.25.04-.36.02-.12.03-.24.04-.33.01-.09.03-.17.04-.22,0-.02,0-.04.01-.06,0-.05.05-.09.11-.08,3.98.11,6.1.59,6.59.72.06.02.09.08.07.14Z"/>
    <g>
      <path class="st74" d="M45.74,40.01c-.02.29-.24.52-.53.54-.53.04-1.41.13-2.35.35-.01,0-.03,0-.04.01-.28.07-.54.19-.77.36-.6.38-1.15.95-1.18.98.05-.1.11-.19.17-.28.33-.52.7-.9.95-1.13,0,0,0,0,0,0,.04-.03.07-.06.1-.09.01-.01.03-.02.04-.03.05-.04.1-.07.15-.1.09-.06.19-.1.3-.13,0,0,1.51-.46,3.17-.46Z"/>
      <path class="st54" d="M45.95,38.47c0,.15-.14.26-.32.27l-2.09.02c-.51,0-.99.22-1.26.58l-.76,1c.49-2.11,1.7-2.02,1.7-2.02l2.48-.04h0c.13,0,.24.09.24.19Z"/>
      <path class="st137" d="M45.91,39.41h0c0,.09-.07.16-.16.17l-2.64.06c-.09,0-.16-.07-.17-.16h0c0-.09.07-.16.16-.16l2.64-.06c.09,0,.16.07.16.16Z"/>
    </g>
    <path class="st21" d="M56.28,39.71s-2.87-5.16-7.27.8l-.03-.02s.48-1.74,2.05-2.76c.04-.03.08-.05.12-.08.81-.49,1.76-.64,2.64-.44h0c.57.13,1.1.4,1.55.83.41.39.77.94.94,1.67Z"/>
    <path class="st51" d="M77.44,39.56h0s0,0,0,0h0Z"/>
    <path class="st13" d="M80.79,36.36h0c-.06-.39-.22-.77-.58-.94,0,0-.62-.12-1.77-1.17,0,0-1.4-1.75-3.27-2.2,0,0-4.24-.69-9.53-.91-.07,0-.15,0-.22,0h.02c-4.84-.37-9.14-.22-11.66-.06-.02,0-.04,0-.05,0-.44.03-.82.06-1.15.08-.01,0-.02,0-.03,0-.01,0-.02,0-.03,0h0c-.08,0-.17.02-.25.03-.1.01-.19.02-.29.03-.1.01-.19.02-.29.04-.1.01-.19.03-.29.04h0c-1.8.27-3.53.78-4.66,1.73l-2.41,1.94h0s-.03.03-.03.03l.87-.02s.02-.02.05-.05c.39-.38,3.07-2.9,5.79-3.12.11,0,.22-.02.33-.03,1.06-.12,7.12-.79,7.94-.15l-2.2,3.6s.33.34-4.85.57c0,0-7.3.63-10.66,1.69,0,0-.02,0-.02,0l.27.64h0s2.83-1.4,15.8-2.34c0,0,1.73-3.8,2.9-4.3,0,0,1.17-.17,3.17.03l-2.72.12s-.66-.11-1.62,1.46l-1.03,1.87c.05.05.14.07.21.04h.02c.23-.1.42-.28.51-.52.3-.75,1.08-2.4,2.32-2.6,0,0,3.91-.7,14.01.77,0,0,.02,0,.06,0,.06,0,.16.03.29.08h0c.44.16,1.23.65,2.03,2.08,0,0-16.24-.21-18.19.57l.18.36s14.22-.8,19.42-.42c0,0,.21.03.35.12,0,0-13.66-.12-25.66,1.26l-.28.06-3.31.51c-1.47.23-2.76,1.15-3.41,2.48-.81,1.67-.84,3.53-.84,3.53l.9.03c.18-1.93.44-2.84,1.44-4.14.53-.69,1.61-1.15,2.7-1.46,1.07-.3,2.15-.45,2.76-.52h0c.22-.03.38-.04.46-.05.58-.06,1.94-.19,3.78-.35.05,0,.1,0,.14-.01.08,0,.16-.01.24-.02,1.81-.15,4.04-.33,6.43-.5.08,0,.17-.01.25-.02,2.92-.2,6.08-.37,9.01-.45.04,0,.09,0,.13,0,.04,0,.08,0,.12,0,1.18-.03,2.31-.05,3.38-.04h0c.07,0,.14,0,.21,0,.04,0,.09,0,.13,0h0c.51,0,1.01.01,1.48.03,0,0,1.55-.08.96,2.27,0,0-.5-2.32-1.89-1.29-.4.29-.78,1.1-1.27,2.6-23.18,3.44-19.75,3.64-19.75,3.64-.45-.25,2.42-.49,2.42-.49l16.04-2.69,1.36-.28h0s0-.02.02-.04c.15-.38,1.18-2.87,2.01-2.67,0,0,.6.2.88,1.58,0,0,.08,1.1-.22,1.45l.03.27s.62-.84.62-2.28c0-.25,0-.5.02-.75,0-.02,0-.03,0-.05h0c.01-.21,0-.46-.03-.7ZM49.7,37.89c-.21.07-.41.15-.6.26-.23.13-.45.28-.64.46-.19.18-.37.38-.53.59-.16.21-.3.44-.43.68-.25.47-.45.98-.59,1.5-.08.26-.14.52-.19.79-.05.27-.1.54-.13.81,0-.55.07-1.1.18-1.63.06-.27.14-.53.22-.8.09-.26.19-.52.32-.77.13-.25.27-.49.43-.72.16-.23.35-.44.56-.63.21-.19.44-.35.69-.49.23-.12.47-.21.72-.29.03,0,.07.01.08.05,0,.01,0,.03,0,.04,0,.06-.04.12-.1.14Z"/>
    <path class="st104" d="M54.44,38.46s-.02,0-.03-.01h0s.02,0,.03.01Z"/>
    <path class="st2" d="M62.04,34.75l-2.87.19c.02-.21.08-.37.16-.49.15-.24.41-.38.68-.4l1.57-.1c.05,0,.11,0,.16.01.44.12.3.79.3.79Z"/>
    <path class="st138" d="M44.94,34.18c-.16-.05-.4.26-.4.26,0,.01-.02.02-.02.03-.05.07-.11.11-.16.13,0,0,0,0-.01,0-.03,0-.06.01-.09.01-.15,0-.28-.12-.29-.27h0s0-.01,0-.02c0-.09.04-.18.11-.23.03-.03.07-.05.1-.08.1-.08.22-.13.35-.15.46-.06.4.3.4.3Z"/>
    <g>
      <path class="st131" d="M66.46,16.51l-8.37-.1h-.96s-7.62-.1-7.62-.1c2.58-1,5.39-1.55,8.32-1.55,2.54,0,4.99.41,7.27,1.17.01,0,.03,0,.04.02.85.31,1.3.56,1.3.56Z"/>
      <path class="st53" d="M57.46,17.18l-.34.73h-10.9c.46-.26.93-.5,1.4-.73h9.84Z"/>
      <path class="st100" d="M69.47,17.91h-11.31l-.36-.73h10.31c.31.15.61.32.91.48.15.08.29.17.44.25Z"/>
      <path class="st82" d="M56.71,18.78l-.39.83h-12.6c.38-.29.77-.57,1.16-.83h11.83Z"/>
      <polygon class="st4" points="62.47 18.78 62.47 19.61 58.98 19.61 58.58 18.78 62.47 18.78"/>
      <path class="st20" d="M71.97,19.61h-8.81v-.83h7.67c.24.16.47.33.7.5.15.11.29.22.44.33Z"/>
      <path class="st14" d="M56.32,21.21h-14.44c.3-.29.6-.56.91-.83h13.53v.83Z"/>
      <polygon class="st90" points="62.4 20.38 61.95 21.21 58.99 21.21 58.99 20.38 62.4 20.38"/>
      <path class="st25" d="M73.76,21.16v.05h-10.15l-.41-.83h9.7c.29.25.58.52.86.79Z"/>
      <path class="st133" d="M56.33,22.86h-16c.25-.28.5-.56.76-.83h15.23v.83Z"/>
      <polygon class="st110" points="61.52 22.03 61.3 22.43 61.3 22.86 58.99 22.86 58.99 22.03 61.52 22.03"/>
      <path class="st120" d="M75.36,22.86h-11.1v-.34l-.24-.49h10.6c.11.12.22.24.33.36.14.16.28.31.41.47Z"/>
      <path class="st127" d="M50.89,23.69v.83h-11.85c.2-.28.41-.56.62-.83h11.23Z"/>
      <polygon class="st135" points="56.33 24.53 53.79 24.53 53.79 23.77 53.02 23.77 53.02 23.69 56.33 23.69 56.33 24.53"/>
      <rect class="st95" x="58.99" y="23.69" width="2.31" height=".83"/>
      <path class="st130" d="M76.65,24.53h-12.39v-.83h11.78c.14.18.28.36.41.55.07.09.14.19.21.29Z"/>
      <path class="st76" d="M50.9,25.26v.83h-12.87c.17-.28.34-.56.52-.83h12.35Z"/>
      <rect class="st70" x="53.79" y="25.26" width="2.54" height=".83"/>
      <rect class="st64" x="58.99" y="25.26" width="2.31" height=".83"/>
      <path class="st99" d="M77.66,26.09h-13.4v-.83h12.89c.15.24.3.48.45.72.02.04.04.07.07.11Z"/>
      <path class="st143" d="M45.07,26.93v.83h-7.94c.14-.28.28-.56.43-.83h7.51Z"/>
      <rect class="st101" x="48.38" y="26.93" width="2.52" height=".83"/>
      <rect class="st114" x="53.79" y="26.93" width="2.55" height=".83"/>
      <rect class="st86" x="58.99" y="26.93" width="2.31" height=".83"/>
      <path class="st47" d="M78.56,27.76h-14.3v-.83h13.87c.08.15.16.29.23.44.07.13.13.26.19.39Z"/>
      <path class="st109" d="M45.07,28.63v.83h-8.67c.11-.28.23-.56.35-.83h8.33Z"/>
      <rect class="st125" x="48.38" y="28.63" width="2.52" height=".83"/>
      <polygon class="st59" points="56.35 28.63 56.35 29.46 55.64 29.46 55.64 28.68 53.79 28.68 53.79 28.63 56.35 28.63"/>
      <rect class="st60" x="58.99" y="28.63" width="2.31" height=".81"/>
      <rect class="st77" x="64.26" y="28.63" width="3.05" height=".83"/>
      <path class="st8" d="M79.29,29.46h-8.4v-.83h8.06c.09.21.18.42.26.64.03.07.05.13.08.2Z"/>
      <path class="st72" d="M40.32,30.25v.83h-4.73v-.17c.07-.22.14-.45.22-.67h4.51Z"/>
      <rect class="st42" x="44.14" y="30.25" width=".92" height=".83"/>
      <rect class="st151" x="70.9" y="30.25" width="1.67" height=".21"/>
      <path class="st91" d="M79.61,31.08h-4.14v-.83h3.88s.03.08.04.12l.02.05s.03.09.04.13c.06.18.11.35.17.53Z"/>
      <polygon class="st26" points="63 19.94 63 19.96 62.99 19.95 62.99 19.94 63 19.94"/>
      <path class="st35" d="M79.39,30.37v.72s0,0,0,0h-3.94s.02-1.6.02-1.6h-2.9v.98h-1.67v-2.77h-3.59v1.89h-3.05v-7.06l-.24-.49-.4-.81-.41-.83-.05-.09v-.45l.33-.22-.12-.18-.21-.34v-.37c0-.09-.04-.18-.1-.24-.04-.04-.1-.08-.16-.09-.02,0-.04-.01-.07-.01h-.01s-.04,0-.06.01c0,0,0,0,0,0-.15.03-.27.17-.27.33v1.52l-.07.14-.45.83-.44.81-.21.4v7.01h-2.31v-.81s0-.87,0-.87v-.83s0-.84,0-.84v-.83s0-.73,0-.73v-.83s0-1.67,0-1.67v-1.65s0-.72,0-.72l-.02-.05-.4-.83-.42-.87-.36-.73-.17-.35-.17.35-.34.73-.41.87-.39.83v.02s0,.75,0,.75v.83s0,.81,0,.81v1.67s0,.83,0,.83v.73s0,.83,0,.83v.84s0,.83,0,.83v.87s0,.83,0,.83v.27s-.72.01-.72.01v-1.06h-2.6v-5.84h-2.14v6.67h-2.52v-3.4h-3.31v5.67h-.92v-2.31h-3.82v3.44h-3.73v2.18h-.88c0-.07.04-3.06.04-3.06h3.52v-.95s0-1.62,0-1.62v-.83s4.82.02,4.82.02v-3.22h5v.66s0,.84,0,.84v.83s0,.85,0,.85l1.16-.02v-.82s0-.83,0-.83v-.84s0-.83,0-.83v-.73s0-.83,0-.83v-.83s0-.67,0-.67h3.68v5.47h1.56v-8.06l.42-.82.45-.87.38-.73.4-.78.48-.94h.02s.45.95.45.95h0s.37.77.37.77l.35.73.42.87.4.82v9.03h.91v-6.91l.21-.51.34-.83.31-.77.34-.83.09-.87h0c.03-.32.3-.55.62-.54l.66.04c.28.01.51.22.55.5l.13.87.13.83.02.12.29.64.37.83.36.81.14.32v6.28h1.45v-1.6h5.29v1.67h4.63v1.67h2.93Z"/>
      <polygon class="st69" points="62.47 19.45 62.47 19.92 62.38 19.91 62.32 19.61 62.31 19.56 62.47 19.45"/>
      <polygon class="st136" points="62.63 19.93 62.63 19.93 62.63 19.93 62.63 19.93"/>
      <rect class="st37" x="62.99" y="19.94" width="0" height="0"/>
      <polygon class="st132" points="63.69 19.45 63.67 19.61 63.64 19.93 63.16 19.95 63.16 19.41 63.37 19.43 63.69 19.45"/>
      <polygon class="st41" points="63 19.94 63 19.96 62.99 19.95 62.99 19.94 63 19.94"/>
    </g>
    <path class="st38" d="M52.51,31.18c-.08,0-.17.02-.25.03-.1.01-.19.02-.29.03-.1.01-.19.02-.29.04-.1.01-.19.03-.29.04h0s0,0,0,0l.02-.04s.39-.04,1.09-.1h0Z"/>
    <path class="st5" d="M57.53,11.93c-14.1,0-25.53,11.05-25.53,24.67,0,5.8,2.07,11.13,5.53,15.34.02.02.04.04.05.07h2.01s-.04-.04-.06-.07c-1.74-1.89-3.13-4.02-4.15-6.34-.14-.31-.27-.63-.39-.95-.08-.19-.15-.39-.21-.58,0-.01,0-.02-.01-.03,0,0,0,.02,0,.03h0c-.09-.03-.18-.08-.27-.14,0,0,0,0,0,0-.96-.65-1.43-2.64-1.43-2.64-.45-2.94.14-4.08.43-4.44,0-.08,0-.17,0-.25,0-3.12.63-6.15,1.88-9,1.21-2.76,2.94-5.23,5.14-7.36,2.21-2.13,4.77-3.81,7.64-4.98,2.96-1.21,6.12-1.83,9.36-1.83s6.4.61,9.36,1.83c2.86,1.17,5.43,2.84,7.64,4.98,2.2,2.13,3.93,4.6,5.14,7.36,1.25,2.85,1.88,5.88,1.88,9s-.63,6.15-1.88,9c-.38.88-.82,1.72-1.31,2.54-.81,1.36-1.76,2.63-2.84,3.8-.02.02-.04.04-.06.07h2.02s.04-.04.05-.07c3.46-4.21,5.53-9.54,5.53-15.34,0-13.63-11.43-24.67-25.53-24.67Z"/>
    <path class="st115" d="M29.18,29.42c-.13.06-.26.13-.37.22-.23.19-.46.39-.69.58-.05.04-.12.06-.17.06-.21,0-.42-.03-.65-.06.09-.08.16-.15.24-.22-.06-.06-.09-.1-.13-.14-.07.07-.15.13-.2.2-.09.12-.21.14-.36.12-.19-.02-.38-.04-.59-.06.08-.08.15-.14.23-.21-.04-.05-.07-.09-.11-.14-.11.11-.22.21-.32.31,0,0-.02.01-.02.02-.39-.04-.77-.07-1.16-.11-.08,0-.15-.01-.23-.02-.06.06-.12.12-.19.19.27.09.54.19.81.28.45.16.9.31,1.35.47.19.07.39.14.59.2-.1.1-.2.2-.3.3h-.01c-.21.22-.42.44-.64.66-.05.05-.09.09-.14.14-.17-.01-.37-.03-.58-.05-.12-.01-.23-.02-.35-.03-.07.07-.15.14-.24.23.16.06.3.11.44.16.05.02.11.04.16.05.1.03.21.07.31.12.07.03.12.12.18.19l.02.16c.08.24.15.45.23.68.08-.08.16-.15.22-.21l-.04-1.01c.21-.19.43-.38.66-.59.15-.14.31-.27.47-.42.3.93.6,1.83.9,2.76.07-.07.14-.13.21-.19-.04-.46-.07-.92-.1-1.38.11-.11.21-.21.33-.33-.04-.04-.07-.07-.1-.11-.08.07-.15.14-.24.22-.02-.28-.04-.54-.07-.8.11-.11.22-.22.34-.34-.03-.04-.06-.07-.1-.11-.08.07-.15.14-.25.23-.02-.27-.04-.5-.04-.74,0-.04.04-.08.08-.11.21-.24.43-.48.63-.72.08-.09.14-.2.18-.3.02-.05,0-.13-.02-.17-.02-.03-.11-.03-.15-.01Z"/>
    <path class="st140" d="M85.64,36.87c.13.06.26.13.37.22.23.19.46.39.69.58.05.04.12.06.17.06.21,0,.42-.03.65-.06-.09-.08-.16-.15-.24-.22.06-.06.09-.1.13-.14.07.07.15.13.2.2.09.12.21.14.36.12.19-.02.38-.04.59-.06-.08-.08-.15-.14-.23-.21.04-.05.07-.09.11-.14.11.11.22.21.32.31,0,0,.02.01.02.02.39-.04.77-.07,1.16-.11.08,0,.15-.01.23-.02.06.06.12.12.19.19-.27.09-.54.19-.81.28-.45.16-.9.31-1.35.47-.19.07-.39.14-.59.2.1.1.2.2.3.3h.01c.21.22.42.44.64.66.05.05.09.09.14.14.17-.01.37-.03.58-.05.12-.01.23-.02.35-.03.07.07.15.14.24.23-.16.06-.3.11-.44.16-.05.02-.11.04-.16.05-.1.03-.21.07-.31.12-.07.03-.12.12-.18.19l-.02.16c-.08.24-.15.45-.23.68-.08-.08-.16-.15-.22-.21l.04-1.01c-.21-.19-.43-.38-.66-.59-.15-.14-.31-.27-.47-.42-.3.93-.6,1.83-.9,2.76-.07-.07-.14-.13-.21-.19.04-.46.07-.92.1-1.38-.11-.11-.21-.21-.33-.33.04-.04.07-.07.1-.11.08.07.15.14.24.22.02-.28.04-.54.07-.8-.11-.11-.22-.22-.34-.34.03-.04.06-.07.1-.11.08.07.15.14.25.23.02-.27.04-.5.04-.74,0-.04-.04-.08-.08-.11-.21-.24-.43-.48-.63-.72-.08-.09-.14-.2-.18-.3-.02-.05,0-.13.02-.17.02-.03.11-.03.15-.01Z"/>
    <polygon class="st58" points="62.63 19.93 62.63 19.93 62.63 19.93 62.63 19.93"/>
    <polygon class="st58" points="63 19.94 63 19.96 62.99 19.95 62.99 19.94 63 19.94"/>
  </g>
  <path class="st23" d="M74.81,63.47c-.09-.1-.16-.29-.21-.56-.06-.27-.13-.76-.21-1.47l-.57-4.56c-.07-.6-.1-1.04-.1-1.34,0-.46.1-.59.49-.74v-.16h-4.78v.16c.59.16.8.37.8.82,0,.26-.03.67-.1,1.23l-.59,4.49c-.33,2.26-.29,2.13-.87,2.45v.16h2.63v-.16c-.46-.22-.54-.36-.54-.76,0-.29.06-.87.17-1.77.04-.24.09-.31.27-.31h1.33c.17,0,.27.1.3.31.13.83.19,1.42.19,1.76,0,.31-.17.57-.5.77v.16h2.73v-.16c-.21-.09-.36-.19-.43-.3ZM72.35,59.82h-.94c-.2,0-.3-.07-.3-.23,0-.27.13-1.43.4-3.45.03-.23.13-.34.31-.34h.14c.19,0,.29.11.31.34.24,2.05.37,3.18.37,3.42,0,.17-.1.26-.3.26Z"/>
  <path class="st126" d="M17.43,63.41c-.09-.1-.16-.29-.21-.56-.06-.27-.13-.76-.21-1.47l-.57-4.56c-.07-.6-.1-1.04-.1-1.34,0-.46.1-.59.49-.74v-.16h-4.78v.16c.59.16.8.37.8.82,0,.26-.03.67-.1,1.23l-.59,4.49c-.33,2.26-.29,2.13-.87,2.45v.16h2.63v-.16c-.46-.22-.54-.36-.54-.76,0-.29.06-.87.17-1.77.04-.24.09-.31.27-.31h1.33c.17,0,.27.1.3.31.13.83.19,1.42.19,1.76,0,.31-.17.57-.5.77v.16h2.73v-.16c-.21-.09-.36-.19-.43-.3ZM14.96,59.76h-.94c-.2,0-.3-.07-.3-.23,0-.27.13-1.43.4-3.45.03-.23.13-.34.31-.34h.14c.19,0,.29.11.31.34.24,2.05.37,3.18.37,3.42,0,.17-.1.26-.3.26Z"/>
  <path class="st44" d="M78.5,56.56c0-.43.03-.79.09-1.09.1-.59.19-.57.53-.69v-.16h-2.69v.16c.26.09.44.19.51.67.01.13.04.36.06.67.04.63.04,1.26.04,2.56v1.07c0,1.82-.03,2.92-.09,3.29-.06.37-.23.62-.51.72v.16h2.6v-.16c-.29-.1-.37-.1-.47-.69-.04-.3-.07-.66-.07-1.1-.01-.44-.01-1.16-.01-2.15v-1.16c0-.99,0-1.69.01-2.12Z"/>
  <path class="st32" d="M85.85,63.13c-.16-.39-.27-.83-.34-1.3-.07-.47-.2-.94-.41-1.42-.21-.46-.49-.76-.84-.9.96-.39,1.43-1.17,1.43-2.36,0-1.56-.84-2.52-2.56-2.52h-2.7v.16c.26.13.43.27.52.43.09.17.14.49.19.93.03.44.04,1.26.04,2.45v1.3c0,.77,0,1.34-.01,1.72-.01.37-.03.71-.04,1.02-.12.92-.26.86-.73,1.14v.16h2.9v-.16c-.3-.13-.39-.23-.51-.41-.07-.09-.1-.24-.12-.47-.03-.44-.06-.87-.06-2v-.54c0-.19.03-.23.19-.23h.2c.3,0,.56.19.74.56.19.37.3.79.36,1.24.04.46.13.89.24,1.3.11.41.26.66.44.72h1.75v-.16c-.27-.03-.5-.24-.66-.64ZM82.96,58.89h-.14c-.16,0-.23-.07-.23-.22v-2.75c0-.16.09-.23.24-.23h.13c.73,0,1.22.56,1.22,1.53,0,1.07-.51,1.66-1.22,1.66Z"/>
  <path class="st150" d="M89.64,60.57h.1c1.85,0,2.89-1.23,2.89-3.16,0-1.77-.94-2.78-2.73-2.78h-2.69v.16c.21.09.37.16.46.23.09.07.17.24.24.53.07.29.1.63.11,1.04.01.41.01,1.07.01,2v1.3c0,.99,0,1.67-.01,2.09-.01.41-.04.76-.11,1.06-.07.3-.14.49-.23.53-.1.06-.26.13-.49.2v.16h3.06v-.16c-.27-.09-.44-.19-.53-.3-.1-.11-.16-.31-.2-.6-.04-.27-.06-.79-.06-1.53v-.6c0-.13.01-.17.17-.17ZM89.47,55.95c0-.19.03-.24.19-.24h.11c.9,0,1.36.59,1.36,1.77,0,1.3-.49,1.95-1.47,1.95h-.06c-.11,0-.13-.03-.13-.16v-3.32Z"/>
  <path class="st81" d="M96.9,54.49c-1.93,0-2.89,1.63-2.89,4.89,0,1.63.23,2.82.69,3.58.46.76,1.14,1.13,2.05,1.13s1.62-.4,2.13-1.19c.52-.79.77-2.02.77-3.69,0-3.28-.96-4.72-2.75-4.72ZM96.8,62.81c-.8,0-1.2-1.17-1.2-3.52s.43-3.53,1.27-3.53,1.2,1.04,1.2,3.49-.43,3.56-1.27,3.56Z"/>
  <path class="st15" d="M106.5,63.13c-.16-.39-.27-.83-.34-1.3-.07-.47-.2-.94-.41-1.42-.21-.46-.49-.76-.84-.9.96-.39,1.43-1.17,1.43-2.36,0-1.56-.84-2.52-2.56-2.52h-2.7v.16c.26.13.43.27.51.43.09.17.14.49.19.93.03.44.04,1.26.04,2.45v1.3c0,.77,0,1.34-.01,1.72-.01.37-.03.71-.04,1.02-.11.92-.26.86-.73,1.14v.16h2.91v-.16c-.3-.13-.39-.23-.52-.41-.07-.09-.1-.24-.11-.47-.03-.44-.06-.87-.06-2v-.54c0-.19.03-.23.19-.23h.2c.3,0,.56.19.74.56.19.37.3.79.36,1.24.04.46.13.89.24,1.3.12.41.26.66.44.72h1.75v-.16c-.27-.03-.5-.24-.66-.64ZM103.61,58.89h-.14c-.16,0-.23-.07-.23-.22v-2.75c0-.16.09-.23.24-.23h.13c.73,0,1.22.56,1.22,1.53,0,1.07-.52,1.66-1.22,1.66Z"/>
  <path class="st9" d="M112.49,56.15c-.07-.43-.11-.8-.11-1.13,0-.19.03-.31.07-.39h-4.68c.04.1.06.2.06.31,0,.26-.04.67-.13,1.24l-.2,1.36.2.04c.23-.84.4-1.36.53-1.55.13-.17.36-.26.69-.26h.19c.16,0,.24.13.24.4v3.48c0,.82,0,1.45-.01,1.87s-.04.8-.06,1.12c-.11.97-.26.9-.72,1.12v.16h2.95v-.16c-.34-.13-.54-.37-.61-.74-.07-.37-.1-1.52-.1-3.42v-3.42c0-.27.09-.4.24-.4h.34c.27,0,.46.09.57.26.11.19.3.69.54,1.5l.19-.03-.19-1.37Z"/>
  <path class="st12" d="M115.17,56.8c0-.7.36-1.07.83-1.07.33,0,.57.12.74.34.2.27.39.72.54,1.33l.2-.04-.16-1.29c-.06-.4-.09-.71-.09-.94,0-.26.04-.44.14-.57l-.11-.07c-.07.07-.17.11-.29.11-.03,0-.11-.01-.27-.03-.19-.04-.43-.07-.72-.07-1.37,0-2.23.94-2.23,2.42,0,2.62,2.59,3.18,2.59,4.86,0,.73-.39,1.13-.97,1.13-.39,0-.7-.14-.92-.44-.27-.34-.51-.94-.73-1.79l-.17.03.19,1.47c.07.47.1.84.1,1.14,0,.24-.06.46-.16.67l.11.07c.1-.13.23-.19.37-.19.13,0,.27.03.43.09.3.09.64.13,1,.13,1.32,0,2.22-.94,2.22-2.39.01-2.35-2.67-3.2-2.66-4.91Z"/>
  <path class="st57" d="M50.2,62.99s0,.02.02.04c.07.15.33.65.56.86"/>
  <path class="st57" d="M91.81,63.78c.23-.21.48-.71.56-.86.01-.03.02-.04.02-.04"/>
  <path class="st48" d="M9.55,64.05h-.24c-1.54-1.98-2.51-3.24-3.15-4.05-.39-.52-.83-1.1-1.34-1.89h-.02c0,.48,0,.86,0,1.99,0,3.19,0,3.49.82,3.49v.35c-.54-.01-1.04-.02-1.49-.02-.56,0-.99.01-1.4.02v-.34c.83,0,.83-.31.83-3.51v-5.67h.24c1.51,1.99,2.49,3.28,3.12,4.11.48.62.81,1.1,1.37,1.96h.03c0-.52,0-1.08,0-2.41,0-2.97,0-3.29-.86-3.29v-.34c.52.01,1,.02,1.44.02.54,0,1-.01,1.39-.02v.34c-.74.01-.74.31-.74,3.29v5.95Z"/>
  <path class="st149" d="M23.34,61.31c0,1.6-.93,2.74-2.49,2.74-.69,0-1.34-.21-1.68-.41.04-.6.07-1.52.08-2.64h.27c.02.59.18.99.4,1.23.23.24.54.31.86.31.65,0,1.08-.4,1.08-1.1,0-.46-.18-.8-.52-1.12-.19-.18-.48-.42-.81-.7-.91-.76-1.25-1.55-1.25-2.51,0-1.56.97-2.68,2.38-2.68.45,0,1.03.12,1.34.27-.04.8-.05,1.75-.05,2.57h-.26c0-.5-.1-.81-.29-1.04-.16-.19-.41-.3-.73-.3-.57,0-.94.42-.94,1.04,0,.39.16.7.45,1,.24.24.53.5.97.87.73.64,1.17,1.41,1.17,2.45h0Z"/>
  <path class="st0" d="M31.5,60.12c0,3.18,0,3.48.91,3.48v.35c-.41-.01-.97-.02-1.55-.02s-1.19.01-1.65.02v-.35c.88,0,.88-.3.88-2.83v-.89h-3.15v.89c0,2.53,0,2.83.87,2.83v.35c-.45-.01-1.01-.02-1.61-.02s-1.16.01-1.54.02v-.35c.86,0,.86-.3.86-3.48v-2.03c0-2.96,0-3.26-.83-3.26v-.35c.36.01.97.02,1.56.02s1.11-.01,1.47-.02v.35c-.79,0-.79.3-.79,2.88v.69h3.15v-.71c0-2.55,0-2.85-.77-2.85v-.35c.38.01.91.02,1.49.02s1.09-.01,1.44-.02v.35c-.75,0-.75.3-.75,3.26v2.03Z"/>
  <path class="st62" d="M36.96,64.1h-.24l-2.04-6.01c-1.01-2.99-1.15-3.26-1.73-3.26v-.35c.27.01.83.02,1.46.02.59,0,1.19-.01,1.63-.02v.35c-.98,0-.87.28-.14,2.45.43,1.34.73,2.28.96,3.16h.03c.23-.87.51-1.79.92-3.12.7-2.2.81-2.49-.08-2.49v-.35c.5.01,1.08.02,1.61.02s1.02-.01,1.27-.02v.35c-.57,0-.7.28-1.68,3.26l-1.96,6.01Z"/>
  <path class="st118" d="M43.54,60.11c0,3.19,0,3.49.87,3.49v.35c-.39-.01-.98-.02-1.59-.02s-1.15.01-1.56.02v-.35c.86,0,.86-.29.86-3.46v-2.06c0-2.97,0-3.26-.83-3.26v-.35c.38.01.96.02,1.52.02.6,0,1.2-.01,1.51-.02v.35c-.79,0-.79.28-.79,3.25v2.03Z"/>
  <path class="st65" d="M46.4,58.09c0-2.97,0-3.28-.83-3.28v-.34c.37.01.95.02,1.54.02s1.13-.01,1.51-.02v.34c-.8,0-.81.3-.81,3.28v3.99c0,.29.07.39.31.39h1.28c.31,0,.53-.08.69-.29.11-.14.19-.45.23-.81h.25c-.04,1.09-.06,1.9-.07,2.59-.59-.01-1.6-.02-2.49-.02-1.05,0-1.97.01-2.42.02v-.35c.82,0,.81-.29.81-3.48v-2.03Z"/>
  <path class="st49" d="M52.54,58.09c0-2.97,0-3.28-.83-3.28v-.34c.37.01.95.02,1.54.02s1.13-.01,1.51-.02v.34c-.8,0-.81.3-.81,3.28v3.99c0,.29.07.39.31.39h1.28c.31,0,.53-.08.69-.29.11-.14.19-.45.23-.81h.25c-.04,1.09-.06,1.9-.07,2.59-.59-.01-1.6-.02-2.49-.02-1.05,0-1.97.01-2.42.02v-.35c.82,0,.81-.29.81-3.48v-2.03Z"/>
  <path class="st1" d="M58.68,58.09c0-2.97,0-3.26-.73-3.26v-.35c.49,0,1.21.02,2.08.02.94,0,1.93-.01,2.69-.02-.03.65-.06,1.51-.08,2.59h-.26c-.03-.93-.26-1.17-.99-1.17h-1.29v2.55h.87c.79,0,.99-.06,1.06-.59h.25c-.02.4-.03.83-.03,1.25,0,.48,0,.97.03,1.41h-.24c-.06-.58-.26-.68-1.04-.68h-.9v2.12c0,.46.03.51.38.51.43.01.8.02,1.23,0,.54-.02.84-.19.9-1.03h.26c-.04,1.08-.07,1.84-.07,2.53-.77-.01-1.66-.02-2.49-.02-1.05,0-1.92.01-2.41.02v-.35c.78,0,.78-.29.78-3.48v-2.03Z"/>
  <g>
    <path class="st66" d="M34.76,22.72c-.23.4-.47.72-.75.97-.27.25-.56.41-.86.48-.3.07-.6.05-.9-.09-.29-.14-.5-.34-.61-.62-.11-.28-.14-.61-.07-1,.07-.39.24-.82.5-1.28.26-.46.54-.81.84-1.06.3-.25.59-.39.89-.43.29-.03.57.04.83.22.27.19.45.43.54.72.09.29.1.61.03.97-.07.35-.22.72-.45,1.12ZM32.54,21.43c-.23.41-.47.74-.73.99-.26.25-.52.42-.79.5-.27.08-.54.06-.8-.07-.28-.13-.47-.34-.57-.62-.1-.28-.12-.62-.06-1.01.07-.39.22-.8.47-1.23.25-.43.52-.77.82-1.02.3-.25.59-.39.88-.44.29-.05.56.02.82.2.24.17.4.38.47.65.07.27.06.57-.02.92-.09.34-.25.72-.48,1.13ZM34.1,22.33c.19-.34.29-.64.27-.92-.01-.28-.13-.49-.35-.63-.22-.14-.46-.16-.71-.03-.25.12-.49.36-.69.72-.21.36-.3.69-.28.97.02.28.15.49.38.61.23.12.47.11.72-.02.25-.13.46-.36.66-.7ZM32.01,21.12c.19-.32.28-.6.27-.85,0-.24-.1-.43-.3-.55-.2-.13-.41-.13-.64-.01-.23.12-.44.34-.63.66-.19.32-.27.62-.26.88.01.26.13.44.34.55.21.11.41.1.63-.02.21-.12.41-.34.59-.66Z"/>
    <path class="st123" d="M38.04,18.15c-.24.27-.52.51-.82.72-.31.21-.61.35-.92.43-.11-.27-.22-.54-.33-.82.25-.06.5-.17.75-.33.26-.16.48-.35.68-.57.24-.26.37-.52.41-.77.04-.25-.03-.46-.2-.63-.17-.17-.38-.24-.61-.19-.24.04-.5.22-.79.55-.12.13-.23.26-.34.39-.17-.15-.34-.29-.51-.44-.09-.82-.15-1.65-.17-2.49.13.05.25.1.38.15-.76.78-1.48,1.61-2.17,2.48-.22-.17-.43-.35-.65-.52.89-1.14,1.85-2.2,2.85-3.17.15.16.3.32.46.47,0,.83.03,1.66.1,2.47-.2.07-.4.14-.6.22.07-.08.15-.17.22-.25.48-.53.96-.81,1.41-.85.45-.04.83.12,1.14.45.2.22.34.47.41.76.07.29.05.6-.06.92-.11.33-.32.66-.63,1.01Z"/>
    <path class="st83" d="M41.94,14.6c-.28.21-.59.38-.92.51-.33.13-.65.2-.96.21-.06-.28-.12-.57-.18-.85.25,0,.51-.05.79-.15.28-.1.53-.23.76-.4.27-.2.45-.42.53-.65.08-.23.05-.45-.08-.65-.14-.2-.32-.31-.56-.31-.24,0-.53.11-.86.36-.13.1-.27.2-.4.3-.14-.18-.27-.36-.41-.53.06-.8.15-1.62.28-2.43.11.08.23.15.34.23-.87.59-1.71,1.23-2.53,1.92-.18-.21-.36-.42-.54-.64,1.06-.9,2.17-1.71,3.31-2.44.12.18.24.37.36.55-.15.81-.26,1.61-.35,2.4-.2.03-.41.05-.62.09.09-.06.17-.13.26-.19.56-.41,1.07-.57,1.51-.52.44.06.78.29,1.03.67.16.25.24.53.26.82.01.29-.06.58-.22.88-.16.29-.42.57-.79.84Z"/>
    <path class="st152" d="M49.52,10.71c-.39.13-.74.18-1.07.16-.33-.02-.61-.1-.86-.26-.25-.16-.44-.39-.56-.69-.12-.3-.15-.58-.07-.85.08-.27.25-.52.52-.74.27-.22.63-.41,1.08-.56.44-.14.84-.2,1.2-.18.35.02.65.12.87.3.23.17.38.42.45.73.08.32.06.61-.05.89-.11.27-.29.51-.54.72-.25.21-.57.37-.96.49ZM48.71,8.26c-.4.13-.75.19-1.07.19-.32,0-.6-.07-.83-.2-.23-.13-.4-.33-.52-.61-.12-.28-.13-.56-.05-.83.09-.27.26-.52.53-.74.27-.23.61-.41,1.03-.54.42-.14.81-.19,1.16-.16.35.03.64.12.87.29.23.16.38.4.46.69.07.28.05.55-.05.79-.11.24-.29.46-.55.65-.26.19-.59.34-.99.47ZM49.28,9.98c.33-.11.57-.26.72-.47.15-.21.19-.44.12-.69-.07-.25-.23-.42-.48-.51-.25-.09-.55-.07-.9.04-.35.11-.6.28-.75.49-.15.21-.17.44-.08.69.09.25.26.41.51.48.24.08.53.06.86-.04ZM48.52,7.68c.31-.1.54-.24.68-.42.14-.18.18-.38.11-.6-.07-.23-.21-.38-.44-.45-.23-.07-.5-.06-.82.04-.31.1-.54.25-.68.44-.14.19-.16.4-.08.62.08.22.23.36.45.42.22.06.48.04.79-.06Z"/>
    <path class="st119" d="M54.95,9.55c-.4.04-.76.03-1.07-.06-.31-.08-.58-.23-.79-.43-.21-.21-.35-.47-.41-.79-.06-.32-.03-.6.11-.85.13-.25.35-.46.66-.62.31-.16.7-.27,1.16-.32.46-.05.86-.02,1.2.07.34.09.6.25.79.47.19.22.28.48.29.8.01.33-.07.61-.23.86-.16.25-.39.44-.68.59-.29.15-.63.24-1.04.29ZM54.67,7c-.41.04-.77.04-1.08-.03-.31-.07-.57-.19-.76-.37-.2-.18-.32-.41-.38-.7-.05-.3-.02-.58.12-.82.14-.24.36-.45.67-.62.31-.17.68-.28,1.11-.32.43-.05.82-.02,1.16.08.34.1.6.25.79.46.19.21.29.47.3.77.01.29-.06.55-.21.76-.15.22-.38.39-.67.52-.29.13-.64.22-1.06.26ZM54.87,8.79c.34-.04.61-.14.8-.31.19-.17.28-.39.26-.65-.02-.26-.14-.46-.36-.59-.22-.13-.52-.18-.88-.15-.36.04-.64.15-.83.33-.19.18-.26.4-.22.66.04.26.17.45.39.58.22.13.5.17.84.13ZM54.6,6.39c.33-.04.57-.12.75-.27.17-.15.25-.33.23-.56-.02-.24-.13-.41-.34-.53-.21-.12-.48-.16-.81-.12-.33.04-.58.13-.75.29-.17.16-.24.35-.21.59.03.23.15.4.35.5.2.11.45.14.78.1Z"/>
    <path class="st105" d="M60.5,9.51c-.4-.04-.75-.13-1.04-.27-.29-.14-.52-.34-.68-.58-.16-.24-.24-.53-.24-.86,0-.32.1-.59.28-.81.18-.22.44-.38.77-.47.33-.1.74-.13,1.2-.08.46.04.85.15,1.17.31.31.16.54.37.68.62.14.25.17.53.12.84-.06.32-.19.59-.4.8-.21.21-.47.35-.79.44-.32.09-.67.11-1.07.07ZM60.75,6.96c-.41-.04-.76-.12-1.05-.25-.29-.13-.51-.3-.67-.51-.16-.21-.23-.47-.22-.76,0-.31.1-.57.29-.78.19-.21.45-.37.78-.47.34-.1.72-.13,1.15-.09.44.04.81.15,1.12.31.31.16.54.37.68.61.15.24.19.51.14.82-.05.29-.17.52-.37.7-.2.18-.45.31-.76.38-.31.07-.67.08-1.09.04ZM60.57,8.75c.34.03.62-.01.84-.14.22-.13.35-.32.39-.58.04-.26-.04-.48-.23-.65-.19-.18-.47-.28-.84-.32-.36-.03-.66.02-.88.16-.22.14-.33.34-.35.6-.01.26.08.48.26.64.19.17.45.27.8.3ZM60.81,6.35c.33.03.59,0,.79-.11.2-.11.31-.28.34-.51.03-.23-.04-.43-.22-.59-.18-.16-.44-.25-.76-.28-.33-.03-.59.02-.8.14-.2.12-.31.3-.32.54-.01.23.07.42.24.56.17.14.42.23.74.26Z"/>
    <path class="st30" d="M68.15,11.39c-.22-.09-.43-.2-.62-.33-.19-.13-.35-.28-.48-.44.19-.2.39-.39.59-.58.1.13.22.25.36.34.14.09.29.17.46.24.44.18.85.19,1.24.04.39-.16.72-.5.98-1.04.04-.09.09-.19.14-.31.05-.12.08-.24.11-.37.05.14.1.29.14.43-.17.15-.36.25-.57.3-.21.06-.43.07-.66.04-.23-.02-.46-.09-.71-.19-.32-.13-.58-.31-.79-.53-.21-.23-.35-.48-.43-.76-.08-.28-.06-.58.05-.9.11-.33.3-.59.56-.76.26-.18.57-.28.93-.29.36-.01.73.06,1.1.22.5.21.88.49,1.13.84.26.35.38.74.38,1.18,0,.44-.14.9-.41,1.4-.28.54-.62.94-1.01,1.22-.38.28-.79.43-1.21.47-.43.04-.86-.03-1.3-.21ZM69.62,8.88c.2.09.39.13.58.12.19,0,.35-.05.5-.13.15-.09.26-.21.33-.36.07-.15.09-.31.07-.47-.03-.16-.1-.31-.23-.46-.13-.15-.31-.27-.55-.37-.2-.09-.4-.13-.59-.12-.19,0-.35.05-.48.14-.14.09-.24.22-.3.4-.1.25-.08.49.04.72.12.22.34.4.64.53Z"/>
    <path class="st19" d="M71.77,13.11c.11-.19.23-.38.34-.56.93-.22,1.89-.39,2.88-.51.24-.03.44-.07.59-.12.15-.05.27-.11.36-.17.09-.07.16-.14.22-.22.14-.19.18-.4.11-.62-.07-.22-.26-.43-.56-.64-.23-.16-.47-.26-.71-.31-.24-.05-.48-.04-.72.03-.12-.28-.24-.56-.37-.84.34-.12.72-.15,1.13-.07.42.08.83.26,1.24.54.36.25.63.52.82.82.18.29.27.58.27.87,0,.29-.1.55-.29.79-.11.14-.24.26-.38.36-.14.1-.33.19-.55.25-.22.07-.5.12-.84.15-.84.08-1.67.2-2.47.36.01-.14.02-.28.03-.42.85.54,1.68,1.14,2.47,1.79-.17.22-.35.43-.52.65-.97-.79-1.99-1.5-3.05-2.13Z"/>
    <path class="st31" d="M77.44,17.8c-.29-.32-.51-.63-.64-.94-.13-.31-.19-.62-.15-.91.03-.3.16-.57.38-.81.22-.24.47-.38.75-.42.28-.04.59.02.92.18.33.16.67.42,1,.79.34.36.57.72.72,1.07.14.35.19.67.13.96-.06.29-.21.53-.46.73-.26.2-.54.31-.84.31-.3,0-.61-.08-.91-.24-.31-.16-.6-.4-.9-.72ZM79.32,16.04c-.3-.32-.52-.63-.67-.93-.15-.3-.21-.59-.19-.86.02-.27.12-.52.32-.73.21-.23.45-.36.74-.39.28-.03.59.03.93.19.33.16.66.41.97.74.32.34.54.69.68,1.04.14.35.18.67.14.96-.04.29-.19.53-.43.72-.23.18-.48.27-.75.27-.27,0-.56-.1-.85-.27-.29-.17-.59-.42-.89-.75ZM78,17.28c.25.27.5.44.76.5.26.06.49.01.69-.16.2-.17.28-.39.25-.66-.04-.27-.19-.56-.45-.84-.27-.29-.53-.45-.8-.5-.26-.05-.49.02-.67.21-.18.19-.25.41-.21.67.04.26.18.52.43.79ZM79.76,15.62c.24.26.47.42.7.48.23.06.43.02.6-.13.18-.16.25-.36.21-.61-.04-.25-.18-.51-.42-.76-.24-.26-.48-.41-.72-.46-.24-.05-.44,0-.61.18-.16.17-.22.36-.18.59.04.23.18.47.41.72Z"/>
    <path class="st107" d="M81.04,22.7c-.23-.4-.38-.77-.45-1.12-.07-.35-.06-.67.03-.96.09-.29.27-.53.54-.72.26-.18.54-.26.83-.23.29.03.58.17.88.42.29.25.58.6.84,1.06.26.45.43.89.5,1.28.07.39.05.74-.06,1.02-.11.28-.32.49-.6.62-.3.14-.6.17-.9.09-.3-.08-.59-.24-.86-.49-.27-.25-.52-.57-.75-.97ZM83.26,21.41c-.23-.41-.39-.78-.48-1.12-.08-.34-.09-.64-.02-.91.07-.27.23-.49.47-.65.25-.17.52-.24.81-.2.29.04.58.19.88.43.3.25.57.58.82,1.01.25.43.4.85.47,1.24.07.39.05.73-.05,1.02-.1.28-.29.49-.57.62-.26.13-.53.15-.8.07-.27-.08-.53-.25-.79-.5-.26-.25-.5-.59-.74-1ZM81.7,22.32c.19.34.41.58.66.71.25.13.49.14.72.02.23-.12.36-.32.38-.61.02-.29-.07-.61-.28-.98-.21-.36-.44-.6-.69-.72-.25-.12-.49-.1-.71.04-.22.14-.34.35-.35.62-.01.27.08.58.27.91ZM83.79,21.11c.19.32.38.55.6.67.21.12.42.13.63.02.21-.11.32-.3.33-.56,0-.26-.08-.56-.26-.88-.19-.32-.39-.54-.62-.66-.23-.11-.44-.11-.64.02-.2.12-.29.31-.3.55,0,.24.08.52.27.84Z"/>
  </g>
</svg>